<svg version="1.1" id="Layer_1" xmlns="http://www.w3.org/2000/svg" xmlns:xlink="http://www.w3.org/1999/xlink" x="0px" y="0px"
	 width="100%" viewBox="0 0 176 272" enable-background="new 0 0 176 272" xml:space="preserve">
<path fill="#000000" opacity="1.000000" stroke="none" 
	d="
M156.223145,169.926102 
	C158.610565,176.253433 158.280396,176.895615 152.142807,178.469559 
	C143.338074,180.727493 138.966614,178.828842 134.527054,170.858810 
	C134.223755,170.314301 133.714783,169.884354 133.382645,169.496048 
	C132.823654,169.552246 132.316742,169.461807 132.199158,169.635284 
	C126.323952,178.303101 119.525551,186.229919 113.007019,194.389465 
	C108.825500,199.623672 108.948051,207.564362 107.453674,214.370834 
	C107.026627,216.315964 106.700165,218.295227 106.502846,220.276306 
	C106.022186,225.102234 105.417137,229.852692 111.039330,232.685745 
	C112.785645,233.565720 114.029732,235.791611 115.074036,237.643646 
	C117.330109,241.644684 116.274391,244.771835 112.081573,246.515930 
	C104.731827,249.573212 97.025826,248.656662 89.404495,248.105774 
	C87.017189,247.933212 86.343086,245.669434 85.838486,243.758270 
	C83.843544,236.202438 82.034317,228.597443 80.022675,221.046265 
	C79.416016,218.769028 80.205109,214.912506 77.301979,214.725952 
	C73.689690,214.493835 69.506508,215.067902 66.839859,218.280655 
	C64.236877,221.416718 63.298203,225.235367 64.992691,229.048965 
	C67.053497,233.686996 68.782074,238.621033 74.404434,240.645935 
	C77.278282,241.680939 79.469948,244.079330 79.385811,247.504974 
	C79.300400,250.982788 76.319679,252.078979 73.790436,253.206177 
	C66.206627,256.585999 58.223457,257.842834 49.927467,257.355682 
	C47.442734,257.209778 46.089329,255.785812 44.730305,253.997391 
	C32.841549,238.352356 26.685734,220.442520 23.685875,201.249939 
	C22.280588,192.259155 20.065294,183.746887 16.120911,175.215530 
	C8.447651,158.618896 13.028815,142.705246 23.251390,128.229553 
	C26.743471,123.284576 30.818607,118.879768 36.307758,116.104118 
	C40.068581,114.202415 44.040977,111.082169 48.033726,115.360023 
	C50.720127,118.238243 49.038261,122.782578 43.622829,127.082611 
	C39.538651,130.325577 36.120220,134.106491 32.745735,138.035202 
	C25.319605,146.680969 24.818985,156.382996 27.971746,166.672440 
	C29.555077,171.839844 32.806946,173.025803 37.640038,170.543152 
	C40.514778,169.066452 42.837318,166.858765 44.765003,164.359268 
	C52.897057,153.814972 62.268032,144.313339 70.119568,133.512634 
	C82.285942,116.776344 84.130470,99.283058 74.793388,79.869049 
	C70.016823,82.390465 64.997208,84.366302 59.531857,84.989441 
	C52.010475,85.847015 45.278824,84.116035 39.523483,79.188477 
	C33.862164,74.341408 34.086243,68.123123 39.925747,63.615032 
	C40.715237,63.005543 41.504383,62.323376 42.406792,61.943653 
	C50.775776,58.422127 56.335793,52.050495 60.909969,44.447086 
	C64.327255,38.766701 68.930367,34.596848 76.358200,35.629856 
	C77.930283,35.848492 79.192085,35.335754 80.271584,33.999249 
	C82.668686,31.031473 86.022179,29.527491 89.604752,28.537676 
	C95.430176,26.928192 101.422028,26.302372 106.311935,21.717213 
	C109.349434,18.869020 114.197166,19.407593 118.360001,20.052937 
	C122.531334,20.699600 126.559776,20.654091 130.722015,19.716019 
	C137.296936,18.234184 141.676422,21.671236 142.267242,28.532818 
	C142.935699,36.296143 140.409286,42.624481 133.164413,46.742901 
	C135.839554,49.174248 138.918991,48.622547 141.800766,48.719620 
	C155.965729,49.196774 164.020889,59.738338 160.442154,73.396988 
	C159.800797,75.844856 160.229919,77.847054 161.069153,80.104172 
	C162.745728,84.613281 164.566345,89.181190 161.824829,94.023766 
	C159.447159,98.223640 154.687790,100.451752 150.909302,97.694290 
	C146.313278,94.340210 142.362396,94.284088 137.773468,96.952438 
	C136.827438,97.502548 135.558899,97.498047 133.729233,97.908333 
	C136.228226,105.911255 138.977783,113.609612 140.360001,121.767616 
	C142.906998,121.113777 144.652710,119.834793 145.661560,118.279274 
	C151.559952,109.184669 161.124161,111.420166 169.581024,110.331100 
	C171.699738,110.058258 172.191895,111.743301 172.369156,113.632050 
	C173.079117,121.196693 168.010071,129.852997 160.220932,132.437576 
	C155.499756,134.004166 152.054413,136.503952 149.192154,140.361679 
	C147.021988,143.286591 144.524826,145.968918 142.200317,148.727036 
	C151.024246,151.955536 151.930145,161.872101 156.223145,169.926102 
M70.034904,250.658768 
	C71.948029,249.775208 74.220901,249.415894 75.229660,247.168060 
	C74.803741,245.056702 73.105476,244.290588 71.524506,243.374969 
	C58.962967,236.099869 57.470818,220.318237 66.907120,211.977432 
	C74.701843,205.087585 83.495476,198.999878 89.199646,189.913467 
	C89.641708,189.209305 90.410500,188.765228 92.277611,189.476135 
	C92.461121,194.414886 88.592117,197.224045 85.549210,200.303680 
	C82.275833,203.616608 78.697548,206.628265 75.252304,209.771362 
	C97.063904,203.067581 114.564751,191.066757 126.463448,170.391617 
	C122.189186,170.777878 119.078415,171.121201 115.958488,171.322845 
	C113.036774,171.511703 110.493759,170.388596 109.378853,167.699890 
	C106.495354,160.746048 104.926041,153.442291 104.591469,145.905426 
	C104.554756,145.078445 104.982071,144.290604 106.391159,144.140228 
	C107.846672,144.866043 108.037483,146.456726 108.352455,148.108017 
	C109.223183,152.672974 110.102882,157.243896 111.224304,161.751419 
	C112.627861,167.393036 114.489563,168.518631 120.202003,167.459030 
	C124.124832,166.731369 128.023712,165.873047 131.928787,165.051682 
	C134.999847,164.405746 136.764481,165.326935 137.937164,168.545959 
	C140.606445,175.873184 145.674088,177.467056 153.034317,173.663010 
	C152.994446,170.948517 151.469025,168.678268 150.461853,166.272186 
	C144.360092,151.695190 143.728546,151.319397 128.219086,153.216049 
	C124.040436,153.727051 121.144051,152.995239 120.320007,148.078644 
	C119.608292,143.832230 118.092323,139.725708 117.071114,135.523529 
	C116.665443,133.854187 115.803062,131.982315 117.620056,130.515839 
	C120.135757,130.385864 120.128067,132.356110 120.539871,133.875290 
	C121.626877,137.885361 122.568733,141.936295 123.728409,145.924438 
	C124.215210,147.598587 124.547157,149.490326 127.116280,149.559174 
	C133.037216,149.717865 135.684647,147.657043 136.576248,141.817230 
	C136.877396,139.844788 137.317993,137.870926 137.377426,135.888214 
	C137.630295,127.450623 136.463852,119.240967 133.682343,111.074478 
	C117.273842,120.663322 100.196388,120.684784 82.874069,118.104134 
	C81.549370,121.035004 80.388168,123.606827 79.224464,126.177521 
	C78.745392,127.235802 78.055916,128.312164 78.769455,129.480240 
	C84.223015,138.407730 80.437340,146.094833 75.497337,153.575134 
	C71.732880,159.275391 69.835480,165.509430 69.271652,172.294220 
	C68.032463,187.206146 62.392254,193.364807 47.626373,195.785431 
	C43.876507,196.400146 39.991703,196.180374 36.170334,196.372589 
	C27.028593,196.832397 26.820028,197.018463 28.373692,205.783768 
	C31.319910,222.405457 37.230400,237.791229 47.521133,251.349152 
	C48.765301,252.988373 50.157368,253.625916 52.155285,253.675934 
	C58.058102,253.823730 63.756828,252.883972 70.034904,250.658768 
M97.075676,104.570412 
	C107.648598,105.181404 118.335129,106.376007 127.552597,98.888702 
	C124.538254,96.571320 119.893845,98.700836 117.474609,93.937416 
	C125.153252,92.506210 133.250580,96.480156 140.587311,90.995461 
	C137.490356,88.663696 134.473358,87.026642 132.333450,84.612206 
	C129.932205,81.902901 125.386566,86.669510 123.735558,81.304047 
	C129.109131,79.612701 134.168350,77.476967 135.244766,71.155342 
	C129.980804,68.626190 128.594070,67.110901 129.290924,64.770401 
	C129.911285,62.686779 136.810211,59.051296 139.549072,59.588890 
	C144.556320,60.571735 141.022308,64.895042 142.342087,67.344887 
	C144.809128,67.973656 146.587982,66.768753 148.304138,65.400223 
	C151.413956,62.920326 146.943741,60.230762 148.533890,57.398170 
	C152.918152,57.632175 153.300888,60.833443 153.213882,63.951080 
	C153.126114,67.095284 154.288620,69.187691 156.970963,70.911385 
	C158.848785,61.034027 153.325211,52.736347 144.062286,52.882935 
	C132.740845,53.062099 125.507111,48.115623 120.661209,38.390949 
	C117.900696,32.851192 112.954674,29.931894 106.969810,29.693781 
	C99.777107,29.407612 92.731369,30.859249 86.208710,34.076355 
	C83.298927,35.511513 82.306343,37.551052 85.110840,40.292374 
	C87.636795,42.761421 88.682091,45.867886 88.079269,49.415722 
	C87.075760,55.321709 87.049675,62.037735 83.733421,66.698044 
	C77.718124,75.151306 80.882088,82.696640 82.394562,91.305893 
	C83.943764,100.124268 87.730194,104.093445 97.075676,104.570412 
M28.619141,137.203705 
	C32.748249,129.746216 41.288864,125.948318 45.942329,117.977272 
	C41.441723,117.579163 40.465576,117.695381 37.380840,119.754417 
	C26.553242,126.981781 20.448498,137.483231 17.427816,149.821396 
	C14.910194,160.104782 16.194281,169.971252 22.113981,179.031982 
	C24.223284,182.260498 25.776688,185.796967 26.150696,189.683563 
	C26.440340,192.693481 28.092720,193.980255 30.829988,193.351959 
	C34.635971,192.478394 38.455769,192.795746 42.272415,192.628067 
	C57.128960,191.975266 63.792557,186.781891 65.322624,173.124863 
	C66.335823,164.081268 69.062698,156.016708 74.014320,148.487061 
	C75.540627,146.166092 76.609032,143.414200 77.297699,140.709549 
	C77.954430,138.130310 78.349442,135.226257 75.404007,132.724197 
	C67.703369,144.128174 58.375473,153.658524 49.994415,163.975616 
	C46.930927,167.746780 43.850510,171.447311 39.550209,173.880051 
	C32.901978,177.641052 26.626335,175.452438 24.422800,168.211639 
	C21.191357,157.593124 21.016987,147.200455 28.619141,137.203705 
M65.694283,44.169872 
	C60.020878,53.293766 53.450054,61.253777 43.346592,66.149734 
	C37.557842,68.954857 37.936489,73.501610 43.175655,77.381821 
	C54.684055,85.905128 73.568916,80.709953 79.600014,67.351219 
	C82.295540,61.380669 83.135010,54.919201 84.360519,48.579815 
	C84.824402,46.180214 83.483040,44.080002 81.792992,42.355644 
	C77.328026,37.800037 71.710350,38.266743 65.694283,44.169872 
M88.911812,240.715775 
	C89.426315,242.681030 89.844284,244.672913 92.563324,244.673874 
	C97.219948,244.675507 101.908623,245.202332 106.506912,244.212982 
	C108.540909,243.775345 111.357109,243.841599 112.012527,241.451431 
	C112.708122,238.914734 110.579620,236.684402 108.679565,235.805176 
	C100.282242,231.919327 102.190231,225.044601 103.088120,218.367172 
	C103.132248,218.039032 103.265923,217.723770 103.323914,217.396484 
	C104.346100,211.628098 105.362968,205.858780 106.522697,199.286652 
	C99.008659,203.947937 92.431496,208.479782 84.941612,211.306412 
	C82.739670,212.137421 82.661316,213.625854 82.990776,215.710281 
	C84.291092,223.937119 86.529251,231.933060 88.911812,240.715775 
M144.475159,139.814102 
	C148.669647,134.704987 152.788254,129.873856 159.902176,128.204193 
	C164.177582,127.200752 166.539200,122.943123 168.083237,118.719681 
	C169.133575,115.846672 168.577209,114.068008 165.132843,114.361443 
	C159.124954,114.873253 152.792923,114.337730 148.806793,120.574951 
	C147.610184,122.447327 145.359619,123.655418 143.561127,125.130310 
	C142.530396,125.975578 141.348770,126.703163 141.273514,128.217392 
	C141.038040,132.954559 140.831268,137.693161 140.610565,142.492325 
	C142.368942,142.398560 143.000229,141.071747 144.475159,139.814102 
M129.307739,109.048508 
	C132.452408,107.267914 132.911652,105.037949 130.338013,102.019623 
	C115.995308,112.095627 100.460236,109.487640 84.966621,105.840454 
	C83.536415,114.040154 83.638596,114.565605 90.913864,115.330681 
	C103.986847,116.705444 116.821960,115.854790 129.307739,109.048508 
M150.953247,93.624001 
	C153.157089,94.991661 155.442596,95.282455 157.344070,93.318596 
	C159.143127,91.460510 159.934677,89.187897 159.214661,86.456451 
	C157.968262,81.728249 155.749847,77.485565 153.245071,73.339729 
	C151.091888,69.775810 148.541290,68.981438 144.183395,72.758171 
	C146.226166,74.338524 148.290268,75.733330 150.096100,77.406853 
	C151.211884,78.440872 153.168350,79.837097 151.569473,81.514946 
	C149.897766,83.269203 148.664368,81.211609 147.502335,80.165718 
	C144.957001,77.874802 142.813950,75.058601 139.131744,73.665138 
	C137.488434,76.283638 135.953491,78.729469 134.269150,81.413368 
	C139.913742,85.563248 145.127594,89.396454 150.953247,93.624001 
M122.068481,33.499828 
	C123.474579,35.751930 124.913857,37.984173 126.277199,40.261864 
	C127.572762,42.426308 129.456039,43.103165 131.802322,42.501625 
	C137.675385,40.995892 141.028488,29.150772 136.871017,24.723848 
	C135.301773,23.052891 133.312210,22.909340 131.339264,23.434998 
	C125.904259,24.883062 120.471245,24.432484 115.037941,23.630033 
	C112.534180,23.260250 110.328438,23.597260 107.685394,25.515226 
	C113.361824,27.061321 118.265816,28.635916 122.068481,33.499828 
z"/>
<path fill="#000000" opacity="1.000000" stroke="none" 
	d="
M108.209900,62.222214 
	C106.552811,59.895428 105.409874,57.469299 108.343307,56.142658 
	C110.795044,55.033871 112.172752,57.333355 113.179199,59.291969 
	C113.727318,60.358650 113.909752,61.678516 112.973480,62.552074 
	C111.564583,63.866608 109.965080,63.632820 108.209900,62.222214 
z"/>
<path fill="#000000" opacity="1.000000" stroke="none" 
	d="
M121.562653,48.371082 
	C122.189857,48.154335 122.546097,48.020622 122.829239,48.112415 
	C125.090019,48.845333 126.625000,50.284012 126.230843,52.795586 
	C125.958435,54.531353 124.327736,54.622974 123.096527,54.072151 
	C120.629982,52.968639 119.628723,51.142643 121.562653,48.371082 
z"/>
</svg>