<?xml version="1.0" encoding="UTF-8"?>
<svg version="1.1" xmlns="http://www.w3.org/2000/svg" width="1290" height="500">
<path d="M0 0 C425.7 0 851.4 0 1290 0 C1290 165 1290 330 1290 500 C864.3 500 438.6 500 0 500 C0 335 0 170 0 0 Z " fill="#050505" transform="translate(0,0)"/>
<path d="M0 0 C1.80513062 -0.032146 1.80513062 -0.032146 3.64672852 -0.06494141 C16.19680614 -0.11141361 29.10202126 1.63805676 38.8125 10.1875 C70.4855986 44.52401825 62.30826467 134.03272994 62.4375 178 C62.44540054 179.36375763 62.44540054 179.36375763 62.45346069 180.75506592 C62.50471433 192.09257759 61.91220849 203.03350173 60.1875 214.25 C57.74159355 215.22275218 55.29455843 216.19198483 52.84375 217.15234375 C50.2794803 218.16392582 50.2794803 218.16392582 48.28125 219.25390625 C43.89709583 221.55972318 41.12304111 221.2418867 36.5546875 219.98828125 C35.77351563 219.74464844 34.99234375 219.50101563 34.1875 219.25 C20.51932104 215.05688069 7.8537027 212.66377767 -6.4375 212.75 C-7.19240723 212.75109772 -7.94731445 212.75219543 -8.72509766 212.75332642 C-23.80863375 212.81567307 -38.10465027 214.81517612 -52.8125 218.25 C-53.76157227 218.46881836 -54.71064453 218.68763672 -55.68847656 218.91308594 C-70.92418539 222.38649685 -70.92418539 222.38649685 -84.8125 229.25 C-89.9388226 228.92844539 -94.29939893 227.43355492 -99 225.5 C-134.38084428 211.7375567 -174.67684972 208.00860812 -211.26953125 218.48046875 C-215.39194117 219.37585437 -218.60359143 219.58864782 -222.8125 219.25 C-226.4917388 216.48123891 -226.76925969 213.30685289 -227.45507812 208.95361328 C-228.2813239 200.39203648 -228.10749926 191.78036297 -228.0625 183.1875 C-228.05906586 182.12077057 -228.05563171 181.05404114 -228.05209351 179.95498657 C-227.87683706 132.96495045 -226.50466769 85.39985912 -216.8125 39.25 C-216.65958496 38.48929199 -216.50666992 37.72858398 -216.34912109 36.94482422 C-213.88588136 24.89913976 -209.91573114 13.95550692 -199.8125 6.25 C-193.81597357 2.86469764 -187.96368008 1.12747562 -181.06079102 1.12060547 C-179.68764488 1.11587723 -179.68764488 1.11587723 -178.28675842 1.11105347 C-176.8164341 1.11408981 -176.8164341 1.11408981 -175.31640625 1.1171875 C-174.29127426 1.11623077 -173.26614227 1.11527405 -172.20994568 1.11428833 C-170.03880756 1.1136084 -167.8676674 1.11544963 -165.6965332 1.11962891 C-162.41808329 1.12493033 -159.1397735 1.11970328 -155.86132812 1.11328125 C-107.09412935 1.09305998 -107.09412935 1.09305998 -92.8515625 15.01171875 C-85.8125 22.36569303 -85.8125 22.36569303 -85.8125 25.25 C-81.22698893 21.33147236 -76.83002329 17.37036951 -72.74609375 12.92578125 C-67.62196606 8.48487058 -62.2518644 6.51541601 -55.75 5.125 C-54.63419556 4.87689575 -54.63419556 4.87689575 -53.49584961 4.6237793 C-35.77454573 0.7856467 -18.06594716 0.17688066 0 0 Z " fill="#FEFEFE" transform="translate(736.8125,13.75)"/>
<path d="M0 0 C15.67765352 13.48514698 26.50755356 31.7362254 28.83203125 52.4609375 C30.277021 71.6822501 29.47835637 92.10349324 22.3825531 110.26315308 C17.81061688 122.18728916 16.97577127 132.87045963 17.0625 145.55078125 C17.05374227 147.54872475 17.04222793 149.54665781 17.02815247 151.54457092 C16.99801242 156.77377896 17.00210132 162.00237084 17.01477051 167.23162842 C17.0225969 172.43768355 17.00241181 177.64359832 16.98242188 182.84960938 C16.97476836 184.90320836 16.96712874 186.9568074 16.95950317 189.01040649 C16.95566746 190.01965809 16.95183174 191.02890968 16.94787979 192.06874466 C16.93754397 195.10038406 16.9307251 198.13201536 16.92453003 201.16366577 C16.89352024 213.49852644 16.73802664 225.82244722 16.3828125 238.15234375 C16.36342306 238.85294355 16.34403362 239.55354336 16.32405663 240.27537346 C16.19903218 244.67265513 16.0263974 249.06623048 15.83203125 253.4609375 C15.79347015 254.67981659 15.75490906 255.89869568 15.71517944 257.1545105 C15.65988068 258.31387115 15.60458191 259.47323181 15.54760742 260.66772461 C15.48545296 262.20075478 15.48545296 262.20075478 15.42204285 263.76475525 C14.68552816 267.13041421 13.53107395 268.37098479 10.83203125 270.4609375 C7.70703125 270.8984375 7.70703125 270.8984375 4.83203125 270.4609375 C0.66073659 264.2039955 1.68271956 255.55281018 1.67431641 248.24267578 C1.66923569 247.26014328 1.66415497 246.27761078 1.65892029 245.26530457 C1.64826222 243.13749184 1.63962436 241.00966823 1.63280106 238.88183975 C1.62083136 235.45615505 1.60131715 232.03058657 1.5796814 228.60494995 C1.51880141 218.86460591 1.46501352 209.12426556 1.43066406 199.38378906 C1.3338375 173.3761705 0.97199557 147.4367628 -0.5546875 121.46875 C-0.61495998 120.41913212 -0.67523247 119.36951424 -0.73733139 118.28808975 C-1.72724953 101.43429184 -3.56899359 84.97646201 -7.16796875 68.4609375 C-7.33409668 67.67058105 -7.50022461 66.88022461 -7.67138672 66.06591797 C-12.61293938 43.14652611 -24.00984782 20.50902353 -44.16796875 7.4609375 C-56.3860544 0.84256384 -65.86918691 -1.78423616 -79.70922852 -1.88916016 C-81.29075971 -1.90559583 -82.87222053 -1.93271904 -84.45336914 -1.97119141 C-98.37929572 -2.30738991 -109.57046059 -0.37066051 -120.4609375 9.10546875 C-122.16796875 10.4609375 -122.16796875 10.4609375 -124.16796875 10.4609375 C-124.44382812 11.06292969 -124.7196875 11.66492188 -125.00390625 12.28515625 C-126.16796875 14.4609375 -126.16796875 14.4609375 -128.79296875 17.2734375 C-131.96866725 20.87151955 -134.17444368 24.81055043 -136.41796875 29.0234375 C-136.75908691 29.66063721 -137.10020508 30.29783691 -137.45166016 30.9543457 C-141.55067709 38.82523277 -142.53210163 45.36510538 -142.54296875 54.2109375 C-142.56746094 55.24476563 -142.59195313 56.27859375 -142.6171875 57.34375 C-142.6533735 66.9209774 -139.96907217 74.22599927 -134.73046875 82.2109375 C-134.17488281 83.07203125 -133.61929688 83.933125 -133.046875 84.8203125 C-125.58030883 95.31386496 -113.83126358 102.571566 -101.16796875 105.4609375 C-91.49957744 106.82842709 -84.25434603 104.87940052 -76.16796875 99.4609375 C-72.98973675 96.81879283 -70.0320056 94.1890112 -68.16796875 90.4609375 C-69.04364502 90.4923584 -69.04364502 90.4923584 -69.93701172 90.52441406 C-93.57272427 91.26171763 -93.57272427 91.26171763 -104.41796875 82.4609375 C-110.70972404 76.41727981 -115.29152201 69.07652069 -115.91796875 60.2109375 C-115.43140067 53.15004257 -110.76615953 48.7839865 -105.79296875 44.2109375 C-96.53680835 36.69542674 -86.86145181 35.54699289 -75.16796875 36.4609375 C-62.6412294 39.46051653 -53.2622342 46.85478803 -46.50488281 57.62768555 C-18.65610122 103.69022392 -23.99212129 179.84526563 -23.98046875 231.8984375 C-23.97897324 233.70955017 -23.97897324 233.70955017 -23.97744751 235.55725098 C-23.97776933 238.98224236 -23.98671919 242.40706783 -24 245.83203125 C-24.0012085 246.864384 -24.00241699 247.89673676 -24.00366211 248.96037292 C-24.01308838 250.38075615 -24.01308838 250.38075615 -24.02270508 251.82983398 C-24.02651688 252.65579575 -24.03032867 253.48175751 -24.03425598 254.33274841 C-24.16796875 256.4609375 -24.16796875 256.4609375 -25.16796875 259.4609375 C-46.01394033 260.23142516 -46.01394033 260.23142516 -54.16796875 255.4609375 C-54.95042969 255.00589844 -55.73289062 254.55085938 -56.5390625 254.08203125 C-58.45062718 252.91919034 -60.31946477 251.72081172 -62.16796875 250.4609375 C-58.09862143 263.44821619 -52.8107123 272.14853456 -40.69598472 278.9877215 C-34.25754446 281.67626182 -27.7269832 281.41097296 -20.879776 281.32506561 C-19.24815493 281.3305556 -17.61654186 281.33911744 -15.9849509 281.35044897 C-11.50975863 281.37267233 -7.03567847 281.3514468 -2.56056063 281.32300221 C2.31221385 281.2997915 7.18487147 281.31735944 12.05766201 281.32971048 C20.59683647 281.34574984 29.13567372 281.33581649 37.67481613 281.30883408 C50.37616892 281.26881259 63.07729998 281.26897413 75.77870175 281.27729432 C97.16463203 281.29014457 118.55041551 281.27024047 139.93630981 281.23161316 C161.16098942 281.19335884 182.38560657 281.16925528 203.61032104 281.16401672 C204.27085981 281.16384858 204.93139857 281.16368045 205.61195366 281.16350721 C211.64659902 281.16197486 217.68124442 281.16060489 223.71588987 281.15943444 C238.72263733 281.15651479 253.72938355 281.15132865 268.73612976 281.1445694 C269.41963035 281.14426314 270.10313094 281.14395688 270.80734367 281.14364134 C304.06266512 281.12853419 337.31794744 281.087156 370.57324219 281.04394531 C415.91665897 280.98506282 461.26004388 280.94212248 506.60349514 280.92185654 C508.74649561 280.92089869 510.88949609 280.91993331 513.03249656 280.91896626 C525.12174179 280.91351924 537.21098708 280.90819532 549.30023244 280.9030223 C600.67466579 280.8809962 652.0490924 280.84642809 703.42351562 280.80767527 C707.39577423 280.80468656 711.36803286 280.80173446 715.3402915 280.79878688 C745.87201048 280.77601744 776.40372012 280.74922422 806.93542409 280.71103126 C809.32267586 280.70805039 811.70992763 280.70507289 814.09717941 280.70209885 C815.85098654 280.69991247 815.85098654 280.69991247 817.64022411 280.69768192 C825.59307096 280.68799163 833.54591763 280.68060229 841.49876785 280.67435074 C882.95823879 280.64075621 924.41685953 280.56623493 965.87407856 280.09893877 C968.34839676 280.07222616 970.82272508 280.04885872 973.29708588 280.02647275 C977.10682466 279.99144698 980.91632446 279.94673211 984.72585924 279.89407038 C986.75293887 279.86805424 988.78012723 279.85098199 990.80730474 279.83424908 C1001.45654708 279.66610835 1008.67054117 278.55717285 1016.83203125 271.4609375 C1017.45335937 270.93371094 1018.0746875 270.40648437 1018.71484375 269.86328125 C1030.59136729 258.98932139 1030.99811108 243.75250782 1032.33203125 228.6484375 C1032.39550751 227.94584808 1032.45898376 227.24325867 1032.52438354 226.51937866 C1033.79101403 212.39403375 1034.5539797 198.25437049 1035.24729919 184.0912323 C1035.28557327 183.3096022 1035.32384735 182.52797211 1035.36328125 181.72265625 C1035.40119278 180.94727005 1035.43910431 180.17188385 1035.47816467 179.3730011 C1035.87200777 171.43868747 1036.36702027 163.51236766 1036.89453125 155.5859375 C1036.97388916 154.3688208 1037.05324707 153.1517041 1037.13500977 151.89770508 C1037.44611999 147.30302246 1037.75747665 142.73169647 1038.3828125 138.16796875 C1038.87721338 134.0880867 1038.97997538 130.12661239 1038.95703125 126.0234375 C1038.96089844 125.30478516 1038.96476562 124.58613281 1038.96875 123.84570312 C1039.27626685 120.36278734 1039.27626685 120.36278734 1037.83203125 117.4609375 C1034.83203125 117.29427083 1034.83203125 117.29427083 1031.83203125 117.4609375 C1029.17168954 120.12127921 1029.80960328 127.08092575 1029.45703125 130.6484375 C1029.26185913 132.6133313 1029.26185913 132.6133313 1029.06274414 134.61791992 C1026.82821208 157.79682477 1025.58202263 181.07810193 1024.26953125 204.32421875 C1024.18308338 205.83162775 1024.09657799 207.33903345 1024.01000977 208.84643555 C1023.85389506 211.56768232 1023.70720411 214.28885883 1023.56616211 217.01098633 C1022.40910769 237.58251234 1022.40910769 237.58251234 1017.95703125 245.8984375 C1017.46460938 246.84589844 1016.9721875 247.79335938 1016.46484375 248.76953125 C1013.51917937 253.62494455 1011.40679128 256.84238514 1005.83203125 258.4609375 C1002.55634353 258.69496093 999.30134551 258.64956701 996.01953125 258.5859375 C995.13587891 258.57691406 994.25222656 258.56789063 993.34179688 258.55859375 C991.17175766 258.53513387 989.00185878 258.49926615 986.83203125 258.4609375 C986.7611644 247.67803456 986.70855134 236.89519077 986.67659473 226.11209869 C986.6612239 221.10003693 986.64054146 216.08813919 986.60571289 211.07617188 C985.73196053 81.81904962 985.73196053 81.81904962 1016.01953125 49.09765625 C1025.88412648 39.74390613 1035.71014296 36.03700625 1049.12890625 36.19140625 C1059.43498754 36.94153242 1066.96745349 40.78344922 1073.83203125 48.4609375 C1077.2550882 53.02501344 1077.46649484 57.66916041 1077.30078125 63.234375 C1075.97199974 72.38082108 1071.0513209 79.05992202 1064.078125 84.83984375 C1058.39521478 88.94142243 1053.88787737 90.32650078 1046.96875 90.99609375 C1046.08251953 91.08310547 1045.19628906 91.17011719 1044.28320312 91.25976562 C1043.37119141 91.34677734 1042.45917969 91.43378906 1041.51953125 91.5234375 C1040.58818359 91.61431641 1039.65683594 91.70519531 1038.69726562 91.79882812 C1036.40906265 92.02178124 1034.12066063 92.24241236 1031.83203125 92.4609375 C1032.19536601 94.43043545 1032.19536601 94.43043545 1032.83203125 96.4609375 C1034.66276209 97.62143727 1034.66276209 97.62143727 1036.83203125 98.4609375 C1038.78558927 99.69476362 1040.71185798 100.96414229 1042.63671875 102.2421875 C1050.35544933 106.52731907 1059.34363195 106.7170601 1067.8359375 104.7734375 C1082.88636417 99.63531175 1093.69278959 90.13170392 1101.45703125 76.3203125 C1105.01239451 68.926773 1105.22991676 62.41729329 1105.26953125 54.3359375 C1105.30240234 53.17578125 1105.33527344 52.015625 1105.36914062 50.8203125 C1105.46006515 36.04094439 1098.47294534 23.34179365 1088.51953125 12.6484375 C1074.32709753 -0.45963049 1058.49810927 -3.57517751 1039.8125 -2.953125 C1019.75104645 -1.82900536 1004.29924715 7.27137729 990.84765625 21.5703125 C976.80323658 38.19168991 969.42573326 61.63731619 966.36503601 82.81758118 C966.03645758 85.06358044 965.70021881 87.30849329 965.35139465 89.55143738 C963.87764016 99.26237627 962.9791769 108.96777344 962.28125 118.76171875 C962.21685919 119.65967981 962.15246838 120.55764088 962.08612633 121.48281288 C960.21502254 148.35639992 960.05583103 175.30384563 959.72518528 202.23085988 C959.63571955 209.47723306 959.5320161 216.72338537 959.42754519 223.96955526 C959.21402854 238.7998282 959.01754325 253.63028618 958.83203125 268.4609375 C954.87203125 268.4609375 950.91203125 268.4609375 946.83203125 268.4609375 C946.13923302 248.7149667 945.75417908 228.98217611 945.67110825 209.22379684 C945.65617395 205.68903064 945.63851129 202.15428729 945.62014771 198.61953735 C945.52133245 179.14188606 945.52133245 179.14188606 945.50610352 169.45581055 C945.49600505 163.41652779 945.4666949 157.37759944 945.42478371 151.33845711 C945.4125611 149.0672581 945.40733626 146.79600916 945.40958214 144.52477837 C945.41194562 141.36696042 945.38970983 138.21016873 945.36206055 135.05249023 C945.36866196 134.13871613 945.37526337 133.22494202 945.38206482 132.28347778 C945.29674447 126.31729037 944.06413933 121.51870678 941.8409853 115.98310947 C940.20695017 111.89836686 939.03527958 107.68856676 937.83203125 103.4609375 C937.56261719 102.54054688 937.29320312 101.62015625 937.015625 100.671875 C936.74878906 99.73601562 936.48195313 98.80015625 936.20703125 97.8359375 C935.96726562 96.99804688 935.7275 96.16015625 935.48046875 95.296875 C933.54161719 86.81731938 933.64879345 78.37173597 933.64453125 69.7109375 C933.63228516 68.41671875 933.62003906 67.1225 933.60742188 65.7890625 C933.59102484 54.94515491 934.51447965 44.62934093 938.45703125 34.4609375 C938.84507935 33.45039307 938.84507935 33.45039307 939.2409668 32.41943359 C947.19534378 12.66110772 964.08635606 -3.13604959 983.203125 -12.04296875 C1009.91410552 -23.05513833 1039.2628988 -24.07974539 1066.140625 -13.13671875 C1086.48498365 -4.49232502 1103.61192591 11.23159162 1112.26953125 31.7734375 C1112.81729999 33.32669956 1113.3406119 34.88893857 1113.83203125 36.4609375 C1114.05503906 37.11449219 1114.27804687 37.76804688 1114.5078125 38.44140625 C1119.02447007 54.32652164 1115.46657346 70.85589838 1107.8359375 85.03515625 C1099.89448982 98.6114713 1087.14110758 109.95142377 1071.83203125 114.4609375 C1066.94778688 115.55288603 1062.02923327 116.4134527 1057.08251953 117.16918945 C1056.15938965 117.31187256 1055.23625977 117.45455566 1054.28515625 117.6015625 C1053.45145508 117.72047852 1052.61775391 117.83939453 1051.75878906 117.96191406 C1051.12295898 118.1265918 1050.48712891 118.29126953 1049.83203125 118.4609375 C1048.65404585 120.8169083 1048.56781685 122.5324381 1048.3671875 125.15991211 C1048.29040771 126.13951401 1048.21362793 127.11911591 1048.13452148 128.12840271 C1048.05532471 129.19591263 1047.97612793 130.26342255 1047.89453125 131.36328125 C1047.80953369 132.46958389 1047.72453613 133.57588654 1047.63696289 134.7157135 C1047.45682564 137.07196129 1047.2787473 139.42836723 1047.10253906 141.78491211 C1046.83752172 145.32509417 1046.56583602 148.86471222 1046.29296875 152.40429688 C1045.45571143 163.3749114 1044.68733632 174.34075708 1044.14694214 185.33018494 C1043.87232802 190.88840706 1043.47883346 196.4210353 1042.95703125 201.9609375 C1042.37399999 208.30315263 1041.81029638 214.6452503 1041.32043457 220.99536133 C1041.07856465 224.1227574 1040.82856662 227.24948612 1040.57830811 230.3762207 C1040.45734987 231.91288447 1040.33994431 233.4498327 1040.22637939 234.98706055 C1038.90250068 252.84011973 1035.42119052 266.93061696 1021.83203125 279.4609375 C1011.67471703 286.90003358 1002.93168545 287.46705828 990.80801392 287.3446188 C988.99926054 287.35223554 987.19051797 287.36291498 985.38179851 287.37635723 C980.41996817 287.40437897 975.4590869 287.38900686 970.49726412 287.36641174 C965.09605091 287.34953242 959.69498905 287.3732706 954.29380226 287.39178091 C944.83032735 287.41859221 935.36712787 287.41937086 925.90363312 287.40304184 C911.83116543 287.3788257 897.7589396 287.3945845 883.68648106 287.41816631 C858.55346729 287.45890888 833.42057341 287.45942346 808.2875393 287.44265546 C786.29334292 287.42798729 764.29919152 287.42600069 742.30499268 287.43658638 C740.8318318 287.43727577 739.35867092 287.43796246 737.88551004 287.43864644 C731.96540077 287.4414033 726.04529152 287.44420488 720.12518231 287.4470785 C703.57630423 287.45505372 687.02742576 287.460578 670.47854614 287.4641428 C669.34817643 287.46438652 669.34817643 287.46438652 668.19497096 287.46463517 C644.18473307 287.46962618 620.17451052 287.46365692 596.16427612 287.45035458 C595.38559247 287.44992527 594.60690882 287.44949597 593.80462869 287.44905366 C581.15952546 287.44205796 568.5144225 287.43457805 555.86931958 287.42705081 C505.71816305 287.39723265 455.56716174 287.40590591 405.41601562 287.44897461 C392.77727275 287.45980287 380.13852983 287.47053867 367.49978638 287.48067379 C366.72155973 287.48129935 365.94333308 287.48192492 365.1415238 287.48256944 C341.15618622 287.50172253 317.1708616 287.51097251 293.18551636 287.50962925 C292.05597802 287.50956692 292.05597802 287.50956692 290.90362072 287.50950333 C274.37308855 287.50848167 257.84255764 287.50494095 241.31202649 287.49911692 C235.39722828 287.49704561 229.48243003 287.49511508 223.56763176 287.49323392 C222.09620091 287.49276168 220.62477007 287.49227909 219.15333922 287.49178612 C195.71087439 287.48397628 172.26848926 287.4982391 148.82603837 287.52304081 C124.56093597 287.54848445 100.29600563 287.54395704 76.03091764 287.5055409 C62.04063936 287.48420482 48.05077256 287.48495046 34.06051327 287.51736029 C24.7188296 287.53678524 15.37746823 287.52718922 6.03582453 287.49386117 C0.71095894 287.47567632 -4.61309353 287.47012163 -9.93792605 287.49975442 C-14.78494407 287.52646398 -19.63044083 287.51618373 -24.47735915 287.47674659 C-26.21715438 287.46899997 -27.95707462 287.47455956 -29.69676366 287.49528343 C-44.23951377 287.65637137 -52.24332963 283.93846291 -63.16796875 274.0859375 C-70.85515589 266.54889073 -73.06011222 257.03200727 -74.41796875 246.7109375 C-74.58143799 245.56729736 -74.74490723 244.42365723 -74.91333008 243.24536133 C-75.89086716 236.20659431 -76.6739373 229.19918215 -76.9921875 222.09765625 C-77.10294847 219.49463324 -77.10294847 219.49463324 -77.6640625 217.125 C-78.35321063 213.48159671 -78.41272391 209.84437082 -78.54296875 206.1484375 C-78.95962932 196.32118702 -79.8541746 186.55214357 -80.80703735 176.76571655 C-81.72460772 167.33757362 -82.54505147 157.90935534 -83.23046875 148.4609375 C-83.84387198 140.04442987 -84.64831058 131.69968866 -85.80078125 123.33984375 C-86.16796875 120.4609375 -86.16796875 120.4609375 -86.16796875 117.4609375 C-87.1115625 117.42355469 -88.05515625 117.38617188 -89.02734375 117.34765625 C-108.10859024 116.37060447 -122.19012419 110.98977308 -136.16796875 97.4609375 C-141.64879168 91.09991619 -145.79102397 84.13105238 -149.16796875 76.4609375 C-149.52117187 75.66429687 -149.874375 74.86765625 -150.23828125 74.046875 C-155.89971239 58.29953293 -152.49020707 40.16678536 -145.81640625 25.48828125 C-135.87236173 5.7390755 -118.55842316 -7.86203893 -98.16796875 -15.5390625 C-65.65109029 -25.77994697 -26.93209983 -22.13620097 0 0 Z " fill="#FAFAFA" transform="translate(164.16796875,165.5390625)"/>
<path d="M0 0 C0.76023468 -0.00570007 1.52046936 -0.01140015 2.30374146 -0.01727295 C3.89860681 -0.02663971 5.49349078 -0.03322335 7.08837891 -0.03710938 C9.49546752 -0.04682517 11.9017041 -0.07793166 14.30859375 -0.109375 C22.86226687 -0.16633326 30.48816368 0.222224 38.6328125 3.203125 C39.57852327 6.83610136 39.68688533 9.00175714 38.33984375 12.50390625 C37.89185425 13.70865601 37.89185425 13.70865601 37.43481445 14.93774414 C37.10827881 15.78844482 36.78174316 16.63914551 36.4453125 17.515625 C31.66762807 30.63919774 28.60700388 43.5182706 26.5078125 57.328125 C26.34901611 58.36912354 26.19021973 59.41012207 26.02661133 60.48266602 C25.51354717 64.05144422 25.06424594 67.62353753 24.6328125 71.203125 C24.54347443 71.90511017 24.45413635 72.60709534 24.36209106 73.33035278 C22.15219001 91.20791966 22.29137272 109.15011536 22.31713867 127.13208008 C22.32176567 130.62895586 22.31485118 134.12548348 22.29663086 137.62231445 C22.19929669 156.43875123 22.41598458 174.84866441 24.98754883 193.5246582 C25.7659622 199.42735267 25.77271434 205.2587119 25.6328125 211.203125 C19.13398208 211.36358995 13.91921534 211.08070107 7.6328125 209.203125 C-19.71338315 204.17393959 -48.67536068 204.81168513 -76.40447998 204.13867188 C-80.59658873 204.03560682 -84.7885174 203.92565469 -88.98046875 203.81640625 C-97.10922001 203.60551246 -105.23812842 203.40179953 -113.3671875 203.203125 C-113.42777344 202.10613281 -113.48835937 201.00914062 -113.55078125 199.87890625 C-113.63523248 198.42446846 -113.71987816 196.97004195 -113.8046875 195.515625 C-113.84400391 194.79439453 -113.88332031 194.07316406 -113.92382812 193.33007812 C-115.56762109 165.6384889 -143.34171261 127.92970875 -163.12109375 109.10546875 C-181.62587548 93.43272318 -198.65439677 91.05540073 -222.1171875 92.890625 C-229.65764134 93.51577587 -237.14749309 94.41251335 -244.640625 95.44921875 C-245.45108276 95.56116074 -246.26154053 95.67310272 -247.09655762 95.78843689 C-251.13325533 96.34986215 -255.16699508 96.92682224 -259.19824219 97.52612305 C-279.7999114 100.53247337 -279.7999114 100.53247337 -286.3671875 99.203125 C-292.93465067 92.97883292 -293.46688491 82.9769422 -293.765625 74.37890625 C-293.7734464 72.09114586 -293.76559726 69.80327898 -293.7421875 67.515625 C-293.75378906 66.37029297 -293.76539063 65.22496094 -293.77734375 64.04492188 C-293.73273426 51.04125569 -290.09174057 40.28386265 -281.3046875 30.515625 C-265.64537753 16.05298719 -243.19190514 16.48729499 -223.1796875 14.953125 C-221.89960815 14.85218536 -220.61952881 14.75124573 -219.30065918 14.64724731 C-184.54935727 11.91238881 -149.73710701 9.98821758 -114.93681049 8.00000191 C-89.87952415 6.56720868 -64.84132127 5.02816782 -39.8203125 3.05078125 C-38.7359063 2.9651486 -37.65150009 2.87951595 -36.53423309 2.79128838 C-33.47995103 2.54856707 -30.42594094 2.30277215 -27.37207031 2.05493164 C-26.48649193 1.9835177 -25.60091354 1.91210377 -24.68849945 1.83852577 C-19.91063294 1.44406668 -15.15007629 0.97640716 -10.38965797 0.4076643 C-6.93032114 0.05780983 -3.47455435 0.02090092 0 0 Z " fill="#FEFEFE" transform="translate(472.3671875,16.796875)"/>
<path d="M0 0 C0.87574173 -0.00637985 1.75148346 -0.0127597 2.65376282 -0.01933289 C3.57263779 -0.02044571 4.49151276 -0.02155853 5.43823242 -0.02270508 C6.91280159 -0.02769768 6.91280159 -0.02769768 8.41716003 -0.03279114 C10.49213193 -0.03782944 12.56711184 -0.04020043 14.64208984 -0.04003906 C17.7468076 -0.04220363 20.85115649 -0.06033207 23.95581055 -0.0793457 C25.99161665 -0.08228497 28.02742441 -0.08426619 30.06323242 -0.08520508 C30.95984085 -0.09239059 31.85644928 -0.09957611 32.78022766 -0.10697937 C39.05193865 -0.08578495 45.18984392 0.44588122 51.41699219 1.12133789 C61.92369717 2.24148361 72.36668094 2.59275271 82.92651367 2.75854492 C84.44394857 2.78602027 84.44394857 2.78602027 85.99203873 2.81405067 C117.39794593 3.3790642 148.81280979 3.33273448 180.22269082 3.33037579 C186.16858085 3.33067893 192.11442598 3.33891135 198.06030273 3.35107422 C254.75681839 4.41539913 254.75681839 4.41539913 311.21463013 0.62130737 C315.08706455 0.13188397 318.88262915 -0.01682451 322.77807617 -0.02270508 C323.85120937 -0.02650382 323.85120937 -0.02650382 324.94602203 -0.0303793 C342.99402964 -0.07359697 361.00847562 0.19538246 379.04608154 0.81582642 C411.55620158 1.93358812 444.0635107 2.45721923 476.59057617 2.77807617 C477.68881305 2.78891448 478.78704992 2.79975278 479.9185667 2.81091952 C493.41257953 2.94300399 506.90668446 3.06366693 520.40084052 3.18008131 C532.06110893 3.28095893 543.7212978 3.38996998 555.38148832 3.49942613 C579.24798473 3.72329475 603.11455775 3.93770039 626.98120117 4.14526367 C627.05613606 7.99671996 627.10132868 11.84798641 627.14135742 15.69995117 C627.16282837 16.78493896 627.18429932 17.86992676 627.2064209 18.98779297 C627.28103897 28.56438545 625.63380359 34.47490447 619.48120117 41.97338867 C611.69416641 49.68255308 600.81593212 52.81502825 590.17346612 52.93709585 C588.83615086 52.92257622 587.49884155 52.90750112 586.16153812 52.89193058 C584.70270346 52.89729104 583.24387656 52.90528117 581.78506878 52.91563317 C577.79478853 52.93640035 573.80541073 52.92009319 569.81517286 52.89746491 C565.46714016 52.87947373 561.11921707 52.89646478 556.77118438 52.90892738 C549.15677009 52.92595433 541.54262444 52.92075689 533.92822075 52.90087128 C522.60525837 52.87138224 511.28249212 52.8763248 499.95950684 52.88812216 C480.90739173 52.90693937 461.85538808 52.89744181 442.8032856 52.8713398 C423.93231739 52.8454917 405.06139925 52.83077943 386.19041252 52.8313427 C385.01632947 52.83136563 383.84224641 52.83138857 382.63258508 52.8314122 C377.86657127 52.83153493 373.10055747 52.83173177 368.33454366 52.83202964 C323.62581702 52.8347478 278.91716663 52.80491511 234.20846645 52.75874064 C194.49069179 52.71787184 154.77297129 52.6991567 115.05517578 52.70117188 C112.50504629 52.70129311 109.9549168 52.70141419 107.40478731 52.70153511 C106.14404979 52.70159617 104.88331227 52.70165722 103.58437059 52.70172012 C97.23792869 52.70202251 90.8914868 52.70229425 84.5450449 52.70253086 C83.29297842 52.702581 82.04091194 52.70263114 80.75090405 52.7026828 C47.56016678 52.70377851 14.36943628 52.69016019 -18.82129532 52.67155117 C-20.59248329 52.67055994 -20.59248329 52.67055994 -22.39945283 52.6695487 C-27.14764583 52.66688402 -31.89583883 52.66421881 -36.64403178 52.66147583 C-53.15911197 52.65199934 -69.67418683 52.64746848 -86.18926956 52.64614136 C-107.47340225 52.6443495 -128.75749026 52.63235531 -150.04160386 52.60284699 C-161.29652962 52.5875121 -172.55138984 52.58027049 -183.80632554 52.58483554 C-191.32596704 52.58704116 -198.84554482 52.57831035 -206.3651659 52.56070411 C-210.64835817 52.55096917 -214.93141322 52.54587552 -219.21461206 52.5539859 C-223.11738606 52.56126844 -227.01988666 52.55458233 -230.92262616 52.53713156 C-232.31964642 52.53325715 -233.71669204 52.5342933 -235.11370118 52.54108138 C-247.20186793 52.59505011 -262.3358154 52.20809598 -271.76098633 43.54370117 C-276.78703896 38.08478276 -278.2822816 32.86488563 -278.21411133 25.43432617 C-278.20766602 24.19038086 -278.2012207 22.94643555 -278.19458008 21.66479492 C-278.17782227 20.37959961 -278.16106445 19.0944043 -278.14379883 17.77026367 C-278.13477539 16.46186523 -278.12575195 15.1534668 -278.11645508 13.80541992 C-278.09294968 10.58517997 -278.0600897 7.3653166 -278.01879883 4.14526367 C-277.06527369 4.135878 -276.11174856 4.12649233 -275.12932873 4.11682224 C-251.56399362 3.88478672 -227.99867904 3.65074244 -204.43338299 3.41477299 C-193.0358382 3.30068765 -181.6382882 3.18718981 -170.24072266 3.07519531 C-107.02565936 2.46004943 -107.02565936 2.46004943 -43.81259179 1.67079997 C-41.69151383 1.64174351 -39.57042115 1.61426135 -37.44931602 1.58726692 C-33.61407788 1.53820622 -29.77896906 1.4818205 -25.94384766 1.42431641 C-24.8511664 1.41097952 -23.75848515 1.39764263 -22.63269234 1.3839016 C-17.34202296 1.2974676 -12.16689836 1.01871765 -6.91550159 0.3676672 C-4.60499327 0.09674167 -2.32557416 0.01174681 0 0 Z " fill="#FDFDFD" transform="translate(470.018798828125,378.854736328125)"/>
<path d="M0 0 C1.36043427 -0.01408653 1.36043427 -0.01408653 2.74835205 -0.02845764 C3.73688171 -0.02768723 4.72541138 -0.02691681 5.74389648 -0.02612305 C6.77923523 -0.03167709 7.81457397 -0.03723114 8.88128662 -0.04295349 C12.29265962 -0.05487572 15.70361613 -0.04837849 19.11499023 -0.0378418 C20.28661713 -0.03635132 21.45824402 -0.03486084 22.66537476 -0.0333252 C44.16297089 0.01571722 65.43172937 1.13116316 86.83636475 3.03387451 C91.66939957 3.46232157 96.50360465 3.87728433 101.33764648 4.29418945 C102.33314514 4.3800531 103.3286438 4.46591675 104.35430908 4.55438232 C106.37175721 4.72838381 108.38921328 4.90229318 110.40667725 5.07611084 C112.41379543 5.24955849 114.42083577 5.42390948 116.42779541 5.59918213 C131.70707896 6.93259337 146.97720222 7.95604845 162.29393005 8.73348999 C163.34230797 8.78673935 163.34230797 8.78673935 164.41186523 8.84106445 C165.44229698 8.89322617 165.44229698 8.89322617 166.49354553 8.94644165 C174.66095272 9.36911919 182.81360172 9.98697878 190.96875 10.59765625 C197.53746809 11.08212013 204.09640286 11.45376773 210.67749023 11.7121582 C225.67124668 12.3281959 240.61863226 13.84192541 255.55249023 15.2746582 C256.54023437 15.3689209 257.52797852 15.46318359 258.5456543 15.56030273 C274.96277179 17.16926841 290.75313961 19.40994184 301.82983398 32.8293457 C308.29479829 42.00636986 309.73911286 49.61566617 309.73779297 60.65917969 C309.73994899 62.67362544 309.75836596 64.68803278 309.77709961 66.70239258 C309.80867461 87.95236628 309.80867461 87.95236628 304.55249023 96.2746582 C302.09625996 98.73088848 300.65470453 98.56800013 297.29373169 98.62586975 C296.55154388 98.62211838 295.80935608 98.618367 295.04467773 98.61450195 C293.86384109 98.61038551 293.86384109 98.61038551 292.65914917 98.60618591 C281.2322819 98.39580024 269.96101369 96.5147476 258.67749023 94.8371582 C256.38468083 94.50727275 254.09171251 94.17848984 251.79858398 93.85083008 C247.63503364 93.25053603 243.47171112 92.64904739 239.31079102 92.03076172 C238.48572052 91.90862808 237.66065002 91.78649445 236.81057739 91.66065979 C234.55249023 91.2746582 234.55249023 91.2746582 232.47897339 90.74229431 C218.28408809 87.29661616 201.93228695 91.71916883 189.45874023 98.3918457 C164.44105383 114.59954039 148.99955506 146.28336777 135.98999023 172.0871582 C135.67956787 172.70236328 135.36914551 173.31756836 135.04931641 173.95141602 C131.6098958 180.94340238 129.25245192 186.84677413 128.98999023 194.7121582 C128.91331634 196.90317275 128.78615317 199.09479003 128.55249023 201.2746582 C120.23826601 205.43177032 105.48779704 203.45954999 96.12780762 203.66308594 C82.00722099 203.97800831 67.90683645 204.53150161 53.80249023 205.2746582 C52.99011902 205.31654266 52.1777478 205.35842712 51.34075928 205.40158081 C49.02049335 205.52221717 46.70052883 205.64744185 44.38061523 205.7746582 C43.70497528 205.81007217 43.02933533 205.84548615 42.33322144 205.88197327 C39.00533984 206.07161043 35.71553744 206.36198932 32.4128418 206.79980469 C29.20353584 207.19457449 26.18417637 207.39151348 22.95874023 207.37231445 C21.99194336 207.3690918 21.02514648 207.36586914 20.02905273 207.36254883 C19.04678711 207.35416992 18.06452148 207.34579102 17.05249023 207.3371582 C16.03928711 207.33264648 15.02608398 207.32813477 13.98217773 207.32348633 C11.50555197 207.31180413 9.02905367 207.29542402 6.55249023 207.2746582 C6.69600301 204.21203443 6.84227083 201.1495798 6.98999023 198.0871582 C7.02930664 197.24217773 7.06862305 196.39719727 7.10913086 195.52661133 C7.33733889 190.83956945 7.64541808 186.17438588 8.05957031 181.5 C8.69076536 173.342175 8.73600294 165.20090876 8.75561523 157.0246582 C8.75844261 156.21118927 8.76126999 155.39772034 8.76418304 154.55960083 C8.77909491 150.23105563 8.78836759 145.9025429 8.79272461 141.57397461 C8.79705436 138.08395618 8.81074034 134.59419266 8.83374023 131.10424805 C8.95487233 112.32827155 8.71006543 93.68327923 7.16186523 74.9621582 C7.09911659 74.1976535 7.03636795 73.4331488 6.97171783 72.64547729 C6.22611091 63.78201292 5.18051166 55.02574796 3.55249023 46.2746582 C3.41105087 45.49272095 3.26961151 44.71078369 3.12388611 43.90515137 C1.19052259 33.35795484 -1.9494515 23.50415857 -5.89331055 13.53491211 C-6.40933838 12.20339111 -6.40933838 12.20339111 -6.93579102 10.8449707 C-7.2507251 10.05880371 -7.56565918 9.27263672 -7.89013672 8.46264648 C-8.53476256 5.93214417 -8.46625861 4.6709285 -7.44750977 2.2746582 C-4.30971227 0.18279321 -3.57562455 0.02084215 0 0 Z " fill="#FEFEFE" transform="translate(803.447509765625,17.725341796875)"/>
<path d="M0 0 C236.94 0 473.88 0 718 0 C718 67.32 718 134.64 718 204 C717.67 204 717.34 204 717 204 C716.79697266 203.05253906 716.79697266 203.05253906 716.58984375 202.0859375 C713.51590992 189.31162564 707.59255273 178.8373491 699 169 C698.49339844 168.33871094 697.98679687 167.67742187 697.46484375 166.99609375 C686.13079907 152.6473671 663.86868949 139.62953005 645.93530273 136.45800781 C641.28417608 135.91668927 636.713654 135.80020407 632.03515625 135.76171875 C631.08418564 135.753647 630.13321503 135.74557526 629.15342712 135.73725891 C627.14388823 135.72347671 625.13432651 135.71272855 623.12475586 135.70483398 C621.09929386 135.6933688 619.07386076 135.67300476 617.04858398 135.64331055 C604.3269594 135.45725198 593.18703289 136.19463158 581 140 C579.66946141 140.34431955 578.33748223 140.68372455 577 141 C576.98541748 140.34926514 576.97083496 139.69853027 576.95581055 139.02807617 C576.88135451 136.08061694 576.78468734 133.13429358 576.6875 130.1875 C576.65366211 128.65125977 576.65366211 128.65125977 576.61914062 127.08398438 C576.58369141 126.10107422 576.54824219 125.11816406 576.51171875 124.10546875 C576.48553467 123.19949951 576.45935059 122.29353027 576.43237305 121.36010742 C575.91308969 118.52560026 575.33222833 117.66227448 573 116 C570.73606029 115.21643098 570.73606029 115.21643098 568.3125 114.8125 C567.50425781 114.65394531 566.69601562 114.49539062 565.86328125 114.33203125 C565.24839844 114.22246094 564.63351562 114.11289063 564 114 C564.02356567 112.61047119 564.02356567 112.61047119 564.04760742 111.19287109 C564.09939059 107.68516199 564.13666231 104.1778714 564.16479492 100.66992188 C564.17968431 99.16497299 564.2000027 97.66006589 564.22631836 96.15527344 C564.45161905 82.91996242 563.50265956 70.34328532 557.125 58.4375 C556.79886719 57.77943359 556.47273438 57.12136719 556.13671875 56.44335938 C553.96639415 52.23360523 551.43647404 49.31074938 548 46 C548 45.34 548 44.68 548 44 C547.13761719 43.60167969 547.13761719 43.60167969 546.2578125 43.1953125 C543.9058602 41.95016128 541.98169158 40.49843616 539.875 38.875 C535.32143459 35.68617276 530.65042449 33.15327528 525.625 30.8125 C524.64829346 30.33176025 524.64829346 30.33176025 523.65185547 29.84130859 C509.63736668 23.56118524 493.07696557 22.36837588 477.9375 21 C477.09184479 20.92006805 476.24618958 20.84013611 475.37490845 20.75778198 C456.64945647 18.98963917 437.88421742 17.7901605 419.11669922 16.5703125 C402.65861091 15.49351942 386.22532183 14.23304603 369.79275513 12.82037354 C311.51197912 7.61477459 311.51197912 7.61477459 253.0625 5.5 C251.86204041 5.48433487 251.86204041 5.48433487 250.6373291 5.46835327 C239.61300365 5.3534503 229.76132053 6.5864584 219.76196289 11.63476562 C217 13 217 13 215 13 C212.58064936 11.79032468 210.7377355 10.11566475 208.71484375 8.33984375 C202.11668827 3.18456509 195.39510501 1.8474408 187.1953125 1.8671875 C186.32035126 1.86623077 185.44539001 1.86527405 184.54391479 1.86428833 C182.68617684 1.86360727 180.82843652 1.86545639 178.97070312 1.86962891 C176.17051605 1.87491409 173.37049415 1.86971504 170.5703125 1.86328125 C147.80978115 1.85222912 125.51638721 4.28557103 103.4375 10 C102.51727051 10.23678467 101.59704102 10.47356934 100.64892578 10.7175293 C96.30687059 11.89595013 92.37922037 13.24498371 88.34765625 15.25 C82.47502171 17.96309226 78.26334279 16.73373415 72.30078125 14.80078125 C70.97100242 14.30563112 69.64159782 13.80947522 68.3125 13.3125 C46.29999476 5.62138371 23.11665363 2.89157228 0 1 C0 0.67 0 0.34 0 0 Z " fill="#FDFDFD" transform="translate(572,0)"/>
<path d="M0 0 C179.85 0 359.7 0 545 0 C545 0.33 545 0.66 545 1 C544.154375 1.21914063 543.30875 1.43828125 542.4375 1.6640625 C534.04761518 4.00941667 528.14528451 6.85471549 522 13 C516.36088221 13.35766075 511.45571796 11.6048687 506.53125 9.03515625 C500.03231089 6.37741109 493.37905312 5.69698874 486.41796875 5.734375 C485.61914276 5.73160049 484.82031677 5.72882599 483.99728394 5.72596741 C481.39384737 5.72181327 478.79088903 5.73445711 476.1875 5.75 C475.28329315 5.75276947 474.3790863 5.75553894 473.44747925 5.75839233 C455.72703178 5.82153047 438.09933037 6.60641473 420.42486572 7.83209229 C417.86331982 8.0094643 415.30155498 8.1834032 412.73974609 8.35693359 C397.66787864 9.3816735 382.5978059 10.42748377 367.5461731 11.71910095 C353.80414941 12.8961569 340.05177572 13.81709826 326.28735352 14.68902588 C301.84005376 16.24167732 277.4087482 17.92113451 253 20 C251.91541504 20.08991211 250.83083008 20.17982422 249.71337891 20.27246094 C221.97825835 22.58785025 193.54822109 25.15235128 173 46 C172.13955078 46.84498047 172.13955078 46.84498047 171.26171875 47.70703125 C154.47041576 65.53965535 156.46639218 90.44070325 157 113 C156.31437988 113.1861084 155.62875977 113.3722168 154.92236328 113.56396484 C154.02243652 113.81871582 153.12250977 114.0734668 152.1953125 114.3359375 C150.85750732 114.7079126 150.85750732 114.7079126 149.49267578 115.08740234 C145.36701034 116.59785655 144.14483021 118.13930563 142 122 C141.51488728 125.06660539 141.688041 127.92066279 142 131 C142.07992187 131.85078125 142.15984375 132.7015625 142.2421875 133.578125 C142.46467438 135.72208952 142.728469 137.86169339 143 140 C138.23541072 139.60945989 134.10189849 139.0733729 129.59765625 137.484375 C121.04057758 135.10378036 112.15251025 135.5168547 103.34082031 135.55395508 C100.2707966 135.56244251 97.20265228 135.53367447 94.1328125 135.50195312 C79.44260054 135.44806687 66.71273702 137.10081676 53.375 143.6875 C52.67189697 144.0270874 51.96879395 144.3666748 51.24438477 144.71655273 C44.3301663 148.15838409 38.12864284 152.30480724 32 157 C31.26523437 157.55042969 30.53046875 158.10085937 29.7734375 158.66796875 C14.19035545 171.23997717 3.98457285 191.49885893 1 211 C0.67 211 0.34 211 0 211 C0 141.37 0 71.74 0 0 Z " fill="#FDFDFD" transform="translate(0,0)"/>
<path d="M0 0 C0.33 0 0.66 0 1 0 C1.06316406 0.680625 1.12632813 1.36125 1.19140625 2.0625 C3.53151339 20.58629549 13.65379476 37.00325919 28.09375 48.6953125 C38.37727895 56.33940236 49.65288526 62.48458801 62.5234375 63.74609375 C65 64 65 64 67 65 C69.46521628 74.844973 69.69885136 85.42268628 70.4375 95.5234375 C70.56389448 97.19857327 70.6907768 98.87367229 70.81811523 100.54873657 C71.15047005 104.93545258 71.47705989 109.32257731 71.80212402 113.70983887 C72.38223049 121.52320375 72.97319536 129.33576202 73.5625 137.1484375 C73.65669 138.39948493 73.65669 138.39948493 73.75278282 139.67580605 C74.49837371 149.56999539 75.25887077 159.46213529 76.11328125 169.34765625 C76.18720093 170.2083371 76.26112061 171.06901794 76.33728027 171.95578003 C77.98129483 190.51029283 80.10130053 207.92776106 95 221 C98.53701751 223.58333279 102.19538486 225.83437867 106 228 C106.89203125 228.50917969 107.7840625 229.01835937 108.703125 229.54296875 C110.79200856 230.71550245 112.88858083 231.8686964 115 233 C115.02712153 234.916588 115.04645097 236.8332873 115.0625 238.75 C115.07410156 239.81734375 115.08570312 240.8846875 115.09765625 241.984375 C115.01510087 244.53368501 114.74617558 246.57933591 114 249 C110.96497313 249.8613608 108.13381846 250.1901052 104.9855957 250.34130859 C103.98546951 250.39161224 102.98534332 250.44191589 101.95491028 250.4937439 C100.8727977 250.54479279 99.79068512 250.59584167 98.67578125 250.6484375 C96.34178365 250.76797125 94.00779974 250.88777243 91.67382812 251.0078125 C88.02855637 251.19096033 84.38320794 251.37160053 80.73754883 251.546875 C64.04819764 252.3571159 47.56072793 253.76032088 31 256 C30.67 256.99 30.34 257.98 30 259 C35.86891186 260.88875202 41.63229812 261.74533351 47.75 262.4375 C48.83748535 262.56382812 49.9249707 262.69015625 51.04541016 262.8203125 C58.6387854 263.65178658 66.23032414 264.25231752 73.8515625 264.75390625 C74.79813721 264.81662216 75.74471191 264.87933807 76.7199707 264.94395447 C81.46962792 265.25511969 86.21964441 265.54961149 90.97167969 265.82202148 C100.30436308 266.38748452 109.03727537 267.15293558 118 270 C118 270.33 118 270.66 118 271 C79.06 271 40.12 271 0 271 C0 181.57 0 92.14 0 0 Z " fill="#FDFDFD" transform="translate(0,229)"/>
<path d="M0 0 C0.33 0 0.66 0 1 0 C1 87.12 1 174.24 1 264 C-38.6 264 -78.2 264 -119 264 C-112.10970498 259.40646999 -104.38272223 259.48872833 -96.33984375 259 C-95.11777725 258.91878906 -93.89571075 258.83757812 -92.63661194 258.75390625 C-88.73733909 258.49540569 -84.83752902 258.24680982 -80.9375 258 C-77.06252875 257.75241963 -73.18776925 257.50247345 -69.31336975 257.24609375 C-66.90830903 257.08713947 -64.50291335 256.93314032 -62.09715271 256.78515625 C-50.91412753 256.04988374 -39.90046132 254.63114584 -29 252 C-31.34509291 249.21352761 -32.92051441 248.5592022 -36.51171875 248.15625 C-37.95587158 247.99080688 -37.95587158 247.99080688 -39.42919922 247.82202148 C-41.04205811 247.66262085 -41.04205811 247.66262085 -42.6875 247.5 C-43.82203613 247.37890869 -44.95657227 247.25781738 -46.12548828 247.13305664 C-60.99724486 245.64932042 -75.93654675 244.8857762 -90.8581543 244.08984375 C-91.885522 244.03196182 -92.91288971 243.9740799 -93.97138977 243.91444397 C-95.91557092 243.80496141 -97.86014905 243.70224636 -99.80509949 243.60740662 C-108.3559847 243.11499831 -108.3559847 243.11499831 -112 241 C-114.66249876 236.3176746 -115.72227904 232.36550144 -115 227 C-112.3692324 224.58747994 -109.78658344 223.44357431 -106.4375 222.3125 C-94.15076735 217.51723615 -84.82236754 208.49667939 -79.1875 196.625 C-77.35106344 191.61597239 -76.29385046 186.76341815 -75.51953125 181.51171875 C-75.39312256 180.65757889 -75.26671387 179.80343903 -75.13647461 178.92341614 C-73.39281131 166.43739495 -72.57894308 153.85119327 -71.65510559 141.28375244 C-71.39252445 137.73496766 -71.12115124 134.18685527 -70.85058594 130.63867188 C-70.37167858 124.34421034 -69.89902168 118.04930245 -69.42972183 111.75411797 C-68.77561987 102.98369367 -68.10794831 94.214315 -67.4362793 85.44522095 C-67.25538295 83.07066006 -67.07756148 80.69588631 -66.90039062 78.32104492 C-66.41377274 71.85760958 -65.9028827 65.42049917 -65 59 C-64.45698242 58.84966309 -63.91396484 58.69932617 -63.35449219 58.54443359 C-48.08803506 54.27073009 -35.04061332 49.71185294 -23 39 C-22.31292969 38.40703125 -21.62585937 37.8140625 -20.91796875 37.203125 C-10.36445832 27.46142306 -3.19885348 13.92834118 0 0 Z " fill="#FDFDFD" transform="translate(1289,236)"/>
<path d="M0 0 C1.07314453 -0.01377686 2.14628906 -0.02755371 3.25195312 -0.04174805 C8.56329311 -0.00830694 12.37411212 0.34722836 16.9375 3.375 C21.64604835 8.46532254 22.10947079 12.55722078 22.17578125 19.26171875 C22.183853 20.03755814 22.19192474 20.81339752 22.20024109 21.61274719 C22.2140663 23.25605039 22.22479545 24.89938211 22.23266602 26.54272461 C22.24416102 28.21370936 22.26457356 29.8846581 22.29418945 31.55541992 C22.33713076 33.97860491 22.35307297 36.40069917 22.36328125 38.82421875 C22.38078934 39.56097336 22.39829742 40.29772797 22.41633606 41.05680847 C22.39383492 46.52109918 21.05921476 50.84508355 17.9375 55.375 C15.09765625 57.43359375 15.09765625 57.43359375 12 58.8125 C10.98035156 59.28558594 9.96070313 59.75867188 8.91015625 60.24609375 C3.57067705 62.27383289 -1.45160584 62.53273242 -7.11987305 62.56445312 C-8.32481588 62.57692282 -8.32481588 62.57692282 -9.55410099 62.58964443 C-12.22745191 62.61625408 -14.90081131 62.63619117 -17.57421875 62.65625 C-19.46983267 62.67406472 -21.36544222 62.69234961 -23.26104736 62.71107483 C-27.30827979 62.75026201 -31.35552347 62.78668048 -35.40280151 62.8208313 C-45.03224886 62.90216048 -54.66157936 62.9957514 -64.29091072 63.08969307 C-66.44598279 63.1106781 -68.60105662 63.13148386 -70.75613213 63.15211296 C-83.70815067 63.27653367 -96.6588581 63.42571153 -109.609375 63.66015625 C-111.56639091 63.69545944 -111.56639091 63.69545944 -113.5629425 63.73147583 C-116.11997524 63.77786753 -118.67700751 63.82428425 -121.23403931 63.87072754 C-148.19515213 64.34876223 -175.15754899 64.53825739 -202.12258911 64.60617065 C-206.38751676 64.61719161 -210.65233054 64.63496053 -214.91720581 64.65872192 C-219.94875099 64.68615095 -224.98011433 64.69835267 -230.0117321 64.69913673 C-231.87618376 64.7017624 -233.74063628 64.70945091 -235.60504341 64.72260094 C-257.64883064 64.86915491 -257.64883064 64.86915491 -265.0625 59 C-270.33889652 52.07472957 -270.22391742 43.78226737 -270.16015625 35.375 C-270.1587413 34.6538501 -270.15732635 33.9327002 -270.15586853 33.18969727 C-270.15033381 30.91808676 -270.13779423 28.64658 -270.125 26.375 C-270.11997654 24.82161602 -270.11541512 23.26823048 -270.11132812 21.71484375 C-270.10038589 17.93485672 -270.0831676 14.15494586 -270.0625 10.375 C-268.38980545 10.36620064 -268.38980545 10.36620064 -266.68331909 10.35722351 C-176.03269913 10.01494486 -176.03269913 10.01494486 -85.58007812 4.50708008 C-57.18951459 1.94669995 -28.51072016 0.19396381 0 0 Z " fill="#FCFCFC" transform="translate(460.0625,287.625)"/>
<path d="M0 0 C0.71980042 0.00115814 1.43960083 0.00231628 2.18121338 0.00350952 C30.33630873 0.09069704 58.54977618 2.16488701 86.58648682 4.62857056 C93.32612499 5.21858013 100.06868846 5.77251932 106.8125 6.3125 C107.63641235 6.37908813 108.46032471 6.44567627 109.3092041 6.51428223 C159.36255414 10.5083929 209.63453686 10.05318179 259.8125 10.3125 C259.8165251 12.55029149 259.81939471 14.78808507 259.82177734 17.02587891 C259.8243605 18.89513535 259.8243605 18.89513535 259.82699585 20.80215454 C259.72316124 45.94696271 259.72316124 45.94696271 252.8125 54.3125 C246.15646832 59.93314898 241.50263966 62.6107006 232.67153931 62.55973816 C231.25046751 62.56335978 231.25046751 62.56335978 229.80068719 62.56705457 C226.61135903 62.57271076 223.42222947 62.56401338 220.23291016 62.55541992 C217.95129848 62.55649246 215.66968707 62.55843071 213.38807678 62.56117249 C207.17420594 62.56603346 200.96040657 62.55834562 194.74654436 62.54821944 C188.2340557 62.53944018 181.7215693 62.54119649 175.20907593 62.5415802 C164.25167628 62.54064226 153.29430476 62.53200208 142.33691406 62.51831055 C131.10285948 62.50428081 119.8688291 62.49713727 108.63476562 62.49780273 C107.9454833 62.49784269 107.25620098 62.49788265 106.54603131 62.49792381 C105.85786841 62.49796417 105.16970551 62.49800452 104.46068919 62.4980461 C90.98865301 62.4987754 77.51663017 62.49175537 64.04459715 62.4825995 C60.18379007 62.48047958 56.32298488 62.47975983 52.46217728 62.47936058 C46.35384727 62.47834542 40.24554214 62.47215463 34.13722038 62.46219444 C31.91103582 62.45930696 29.68484839 62.45803631 27.45866203 62.45862198 C21.51973944 62.45959191 15.58245123 62.43419988 9.6440587 62.35178161 C7.72189525 62.32511585 5.79964685 62.30409439 3.87736464 62.28814149 C1.0231008 62.25691842 -1.82839245 62.19134436 -4.68179321 62.11592102 C-5.52458434 62.11076074 -6.36737548 62.10560046 -7.23570573 62.1002838 C-13.29127786 61.88520048 -17.48249339 60.16624906 -22.1875 56.3125 C-25.15868527 51.94204243 -24.51139069 46.24134039 -24.5234375 41.12109375 C-24.5300943 40.13883316 -24.5367511 39.15657257 -24.54360962 38.14454651 C-24.55371442 36.07270171 -24.55842731 34.0008245 -24.55810547 31.92895508 C-24.56248972 28.75743368 -24.59886304 25.58729202 -24.63671875 22.41601562 C-24.64258509 20.40104642 -24.64655571 18.38607062 -24.6484375 16.37109375 C-24.66280853 15.4231041 -24.67717957 14.47511444 -24.69198608 13.49839783 C-24.64683268 7.00787299 -24.64683268 7.00787299 -22.53369141 3.80883789 C-15.51473014 -0.66766717 -8.02133093 -0.04001785 0 0 Z " fill="#FDFDFD" transform="translate(833.1875,287.6875)"/>
<path d="M0 0 C1.94277832 0.00809692 1.94277832 0.00809692 3.92480469 0.01635742 C12.80660492 0.15620653 20.84712984 1.24889893 29.4375 3.34765625 C51.15458423 8.57908099 76.0728557 9.4961665 98.1875 6.4375 C100.64466491 6.35101593 103.10381937 6.30716664 105.5625 6.3125 C107.36847656 6.30863281 107.36847656 6.30863281 109.2109375 6.3046875 C112.1875 6.4375 112.1875 6.4375 114.1875 7.4375 C113.6618695 21.10389311 105.20432089 30.16984515 96.1875 39.4375 C94.96729596 40.80197666 93.75720371 42.17564114 92.5625 43.5625 C86.20788877 50.8680388 79.79281918 57.97793983 72.7421875 64.625 C65.22090569 72.90531025 60.24305066 82.63274371 55.16992188 92.515625 C48.94739629 104.33918153 40.52315291 116.735056 27.57421875 121.76953125 C8.6336172 127.07041974 -17.21458937 110.9640149 -33.12817383 102.01123047 C-35.70840339 100.51754622 -38.26088892 98.97945609 -40.8125 97.4375 C-43.13974396 96.09319872 -45.47557736 94.76496542 -47.8125 93.4375 C-47.52375 94.20835937 -47.235 94.97921875 -46.9375 95.7734375 C-46.56625 96.77632813 -46.195 97.77921875 -45.8125 98.8125 C-45.44125 99.81023437 -45.07 100.80796875 -44.6875 101.8359375 C-43.8125 104.4375 -43.8125 104.4375 -43.8125 106.4375 C-55.42434381 107.03354521 -65.52710869 104.83173822 -74.8125 97.4375 C-77.56824503 94.04859692 -78.38312262 91.09025169 -78.19580078 86.70507812 C-77.40715887 82.03953288 -75.28913561 77.92111045 -73.25 73.6875 C-72.5242981 72.14703003 -72.5242981 72.14703003 -71.78393555 70.57543945 C-67.76117247 62.15721336 -63.49074823 53.86924345 -59.125 45.625 C-58.52034912 44.47612305 -57.91569824 43.32724609 -57.29272461 42.14355469 C-48.01287564 24.91223995 -35.40287624 7.90380388 -16.26489258 1.03076172 C-10.933857 -0.25887656 -5.45394376 -0.04350422 0 0 Z " fill="#FCFCFC" transform="translate(1025.8125,116.5625)"/>
<path d="M0 0 C1.36125 1.11761719 1.36125 1.11761719 2.75 2.2578125 C16.27241941 13.93968038 23.81892521 28.41988348 32 44 C33.09752176 46.07298788 34.1951787 48.14590419 35.29296875 50.21875 C36.36311101 52.24940393 37.43215391 54.28063766 38.5 56.3125 C39.23827026 57.71592651 39.23827026 57.71592651 39.99145508 59.14770508 C47.88231174 74.2935202 47.88231174 74.2935202 48.25 79.625 C45.48322675 87.09528778 38.24229326 90.84447493 31.3125 94.06640625 C25.91610108 96.24502 20.72232217 96.09866073 15 96 C15.49730652 91.02693484 16.55302334 87.36200187 19 83 C14.6329646 83.56426025 11.87247151 85.16355485 8.22265625 87.578125 C1.30416908 92.00436643 -5.93095782 95.44829971 -13.4206543 98.79248047 C-15.56886892 99.75284725 -17.7094434 100.72887895 -19.84960938 101.70703125 C-47.78781652 114.37860462 -47.78781652 114.37860462 -61.9296875 110.1171875 C-74.63213399 104.28718926 -80.57943529 92.42376078 -86.89453125 80.6171875 C-87.40733643 79.66142822 -87.9201416 78.70566895 -88.44848633 77.72094727 C-89.45514002 75.8338874 -90.451712 73.94140147 -91.4362793 72.04272461 C-97.96600336 59.74007295 -107.22202728 50.56898003 -117.13476562 40.94335938 C-125.24245523 32.97780603 -132.4843219 24.48385866 -138.9375 15.125 C-139.66839844 14.07570312 -140.39929688 13.02640625 -141.15234375 11.9453125 C-144.08313822 7.27339066 -145.61954797 3.57593174 -145 -2 C-141.15758361 -4.56161093 -138.00754875 -4.25841178 -133.5625 -4.1875 C-132.79873047 -4.18685547 -132.03496094 -4.18621094 -131.24804688 -4.18554688 C-125.53750718 -4.1408168 -125.53750718 -4.1408168 -123.09985352 -3.50219727 C-102.42914908 1.44137197 -75.64811258 -3.73541291 -55.1484375 -8.3515625 C-36.36754632 -12.21958723 -15.30211425 -12.67206337 0 0 Z " fill="#FCFCFC" transform="translate(297,127)"/>
<path d="M0 0 C1.23314941 0.1561377 2.46629883 0.31227539 3.73681641 0.47314453 C9.80229924 1.28373901 15.5669938 2.18899793 21.375 4.125 C22.45523437 4.47820312 23.53546875 4.83140625 24.6484375 5.1953125 C25.42445313 5.46085938 26.20046875 5.72640625 27 6 C26.41563287 9.4595676 25.25332937 11.13105213 22.796875 13.6015625 C22.14589844 14.25640625 21.49492187 14.91125 20.82421875 15.5859375 C20.13972656 16.25882813 19.45523437 16.93171875 18.75 17.625 C18.08097656 18.305625 17.41195313 18.98625 16.72265625 19.6875 C16.06652344 20.33976562 15.41039062 20.99203125 14.734375 21.6640625 C14.13850586 22.25654785 13.54263672 22.8490332 12.92871094 23.45947266 C8.50247457 26.99485892 3.62474324 27.47428782 -1.859375 27.97265625 C-2.70602722 28.05314713 -3.55267944 28.133638 -4.42498779 28.21656799 C-20.66743192 29.67462122 -36.97223257 30.48151456 -53.25 31.4375 C-59.78644921 31.82189746 -66.32287114 32.20674018 -72.85915375 32.59396172 C-74.7015941 32.70310925 -76.54404711 32.81204336 -78.38651276 32.92076302 C-88.51607814 33.51999749 -98.63650721 34.15822133 -108.75 34.9921875 C-135.39814165 37.13959883 -162.00160853 37.28737037 -188.72288513 37.30962753 C-191.81953482 37.31244946 -194.91617178 37.31797114 -198.01281738 37.32363892 C-217.82125146 37.34988377 -237.60231652 37.2420439 -257.3828125 36.10546875 C-258.084454 36.0667547 -258.7860955 36.02804066 -259.50899887 35.98815346 C-266.56217511 35.58603481 -273.22165137 35.0444426 -280 33 C-280 31.68 -280 30.36 -280 29 C-262.37945103 18.15234954 -245.10169449 13.67789163 -224.89160156 9.76757812 C-219.72747851 8.74900831 -214.58282796 7.64586897 -209.43554688 6.54589844 C-198.31878535 4.1852521 -187.3329323 1.98210132 -176 1 C-174.77579346 0.88495117 -174.77579346 0.88495117 -173.52685547 0.76757812 C-165.6933386 0.04149681 -157.85086091 -0.50121654 -150 -1 C-149.29391602 -1.04596313 -148.58783203 -1.09192627 -147.86035156 -1.13928223 C-99.22556678 -4.28229177 -48.44099799 -6.28912653 0 0 Z " fill="#FBFBFB" transform="translate(480,235)"/>
<path d="M0 0 C0.99052368 0.05327454 1.98104736 0.10654907 3.00158691 0.16143799 C57.03293679 3.1102661 57.03293679 3.1102661 82.04418945 9.97631836 C86.03982591 11.04045293 90.06419106 11.88190697 94.12109375 12.67578125 C95.13796768 12.8754248 95.13796768 12.8754248 96.17538452 13.07910156 C97.55809291 13.35036415 98.9408037 13.62161448 100.32351685 13.89285278 C132.94992736 20.36952803 132.94992736 20.36952803 143 31 C143.33 31.99 143.66 32.98 144 34 C129.43675936 39.29133483 111.74403708 37.16366492 96.4765625 37.16796875 C95.13581702 37.16939697 93.79507171 37.17099394 92.45432663 37.17275429 C85.40558195 37.18198356 78.35685599 37.18609402 71.30810547 37.18530273 C65.56588919 37.18477428 59.82374172 37.19172827 54.08154297 37.20581055 C22.0086677 37.28267349 -9.98523316 37.19060692 -42 35 C-43.08937866 34.92840668 -44.17875732 34.85681335 -45.30114746 34.78305054 C-50.27937078 34.45337875 -55.25338524 34.08962803 -60.22573853 33.68109131 C-64.2873843 33.34853793 -68.35081953 33.03888583 -72.4140625 32.7265625 C-73.22226944 32.66413361 -74.03047638 32.60170471 -74.86317444 32.53738403 C-82.32181085 31.965607 -89.78365866 31.46146665 -97.25012207 31.00378418 C-99.28799607 30.87653014 -101.32510019 30.74004944 -103.36230469 30.60253906 C-109.78618982 30.19520166 -116.11862371 29.97212999 -122.5546875 30.1484375 C-141.69856977 30.52572663 -141.69856977 30.52572663 -148.68676758 24.12207031 C-151.38587316 21.24234598 -153.75004733 18.23815377 -156 15 C-156.60585938 14.23429687 -157.21171875 13.46859375 -157.8359375 12.6796875 C-159 11 -159 11 -159.125 8.9375 C-157.30680561 5.80616522 -154.31471047 5.03028514 -151 4 C-146.56742774 3.10591939 -142.1089111 2.51227752 -137.625 1.9375 C-136.32409424 1.76831055 -135.02318848 1.59912109 -133.68286133 1.42480469 C-129.79117548 0.92696143 -125.89616826 0.46142211 -122 0 C-121.00242676 -0.12294434 -120.00485352 -0.24588867 -118.97705078 -0.37255859 C-79.82171376 -5.01622469 -39.24969502 -2.11376478 0 0 Z " fill="#FCFCFC" transform="translate(948,234)"/>
<path d="M0 0 C4.39971522 -0.00571114 8.79941783 -0.01688715 13.19912413 -0.02723592 C21.86765063 -0.04675845 30.53617843 -0.0612115 39.20471734 -0.07389435 C46.41274453 -0.08458 53.62076503 -0.09749839 60.82878599 -0.11176168 C61.87666915 -0.11383191 62.9245523 -0.11590214 64.00418949 -0.11803511 C66.14223215 -0.12226108 68.28027481 -0.12648716 70.41831747 -0.13071336 C146.84379024 -0.28039632 223.26946366 -0.35413787 299.69505396 -0.41302628 C311.1900786 -0.42190669 322.68510297 -0.43112823 334.18012724 -0.44047605 C335.45010821 -0.44150076 336.72008918 -0.44252546 338.02855442 -0.44358122 C379.30516481 -0.47713108 420.58162325 -0.54575536 461.85815186 -0.63322548 C504.34998735 -0.72310691 546.84174038 -0.78056422 589.3336715 -0.7959621 C595.32797858 -0.79814321 601.32228546 -0.80068203 607.31659231 -0.80343115 C608.4962063 -0.80395888 609.67582029 -0.80448661 610.89118015 -0.80503033 C629.88627304 -0.81445677 648.88114262 -0.8579528 667.87614876 -0.91400174 C686.93562178 -0.96947832 705.99485514 -0.98858826 725.0544026 -0.97024717 C736.38232388 -0.96044444 747.70940278 -0.97866966 759.03718468 -1.03655883 C766.59567938 -1.07245219 774.15360855 -1.07227836 781.71212807 -1.0423625 C786.02330459 -1.02634046 790.33287632 -1.0263638 794.64389492 -1.0702308 C798.56396603 -1.10981028 802.48116006 -1.10355945 806.40116855 -1.06036128 C807.81194994 -1.05291091 809.22294388 -1.06231948 810.63346497 -1.09042464 C821.07980893 -1.2852753 821.07980893 -1.2852753 825.08749229 2.35220799 C827.81309629 6.10173704 829.79229618 9.61376666 830.69892607 14.18427981 C820.2855107 14.25265384 809.91582504 14.11189342 799.50947449 13.69227195 C754.23682495 11.88242165 708.95202172 10.77661142 663.64867271 10.13326392 C661.43670584 10.10179686 659.22474473 10.06994477 657.01278386 10.03805888 C567.07748619 8.7480751 477.13365995 8.84400912 387.19108275 8.86963005 C369.24389046 8.87446844 351.29674433 8.86578845 333.34956083 8.84809817 C238.19802361 8.75623437 143.06615032 8.78971789 47.92939482 10.64131106 C47.06508566 10.65812252 46.2007765 10.67493398 45.31027616 10.69225488 C33.19108964 10.9288049 21.07220379 11.17826327 8.95356474 11.44135988 C8.25200206 11.45655311 7.55043939 11.47174634 6.82761723 11.48739997 C-9.98028925 11.85277856 -26.7841281 12.29689023 -43.58658191 12.85790557 C-53.49533626 13.18333962 -63.38797711 13.30905981 -73.30107393 13.24677981 C-74.79325981 13.24171878 -76.28544749 13.23716456 -77.77763643 13.23310793 C-81.28548928 13.2225472 -84.79326764 13.20558095 -88.30107393 13.18427981 C-87.67862794 11.91219359 -87.05300626 10.64166099 -86.42607393 9.37177981 C-86.07802706 8.66408449 -85.72998018 7.95638918 -85.37138643 7.22724856 C-84.30107393 5.18427981 -84.30107393 5.18427981 -82.30107393 2.18427981 C-80.05904419 1.69192436 -80.05904419 1.69192436 -77.20413216 1.53120346 C-76.11989894 1.46688124 -75.03566572 1.40255903 -73.91857694 1.33628766 C-72.72480095 1.28612507 -71.53102496 1.23596248 -70.30107393 1.18427981 C-69.05889529 1.1309753 -67.81671665 1.0776708 -66.53689623 1.022751 C-62.30901983 0.8655614 -58.08147055 0.74265575 -53.85214224 0.63350142 C-52.68471068 0.60214416 -52.68471068 0.60214416 -51.49369464 0.57015343 C-34.32943767 0.11495471 -17.16943726 0.01821 0 0 Z " fill="#EFEFEF" transform="translate(274.3010739320889,459.8157201940194)"/>
<path d="M0 0 C1.07638733 0.00182281 2.15277466 0.00364563 3.26177979 0.00552368 C18.97841018 0.0502867 34.2450377 0.55831199 49.75 3.3125 C50.91225098 3.50537598 52.07450195 3.69825195 53.27197266 3.89697266 C77.44137303 7.91208477 77.44137303 7.91208477 82.75 11.3125 C84.2859423 14.38438459 83.93374783 17.61621775 83.953125 20.98828125 C83.95882507 21.75045456 83.96452515 22.51262787 83.97039795 23.29789734 C83.97985081 24.91269542 83.98638307 26.52751282 83.99023438 28.14233398 C83.99992133 30.60500092 84.03093303 33.06682656 84.0625 35.52929688 C84.0690321 37.09895338 84.07428176 38.66861586 84.078125 40.23828125 C84.0904718 40.97178299 84.1028186 41.70528473 84.11553955 42.46101379 C84.09628069 46.91391525 83.70396034 49.90279248 80.75 53.3125 C72.7807442 57.14465489 63.44036988 58.25746004 54.75 59.4375 C53.56414307 59.60217773 52.37828613 59.76685547 51.15649414 59.93652344 C47.68930731 60.40869477 44.21993953 60.86110033 40.75 61.3125 C39.89003418 61.43399414 39.03006836 61.55548828 38.14404297 61.68066406 C25.02861425 63.51786608 11.84400945 63.54472817 -1.375 63.625 C-2.26365753 63.63462769 -3.15231506 63.64425537 -4.06790161 63.6541748 C-37.36782113 63.96305164 -37.36782113 63.96305164 -50.25 56.3125 C-51.10037842 55.98749512 -51.95075684 55.66249023 -52.8269043 55.32763672 C-55.25 53.3125 -55.25 53.3125 -55.70367432 51.45245361 C-55.86474418 48.95759139 -55.86360308 46.50738334 -55.80859375 44.0078125 C-55.80626236 43.09168182 -55.80393097 42.17555115 -55.80152893 41.23165894 C-55.79178404 39.2931793 -55.76997985 37.3547285 -55.73706055 35.41650391 C-55.68780152 32.4556236 -55.67558911 29.49640864 -55.66992188 26.53515625 C-55.65582949 24.65102407 -55.6396228 22.76690627 -55.62109375 20.8828125 C-55.61573105 19.99933136 -55.61036835 19.11585022 -55.60484314 18.20559692 C-55.43731323 9.49963487 -55.43731323 9.49963487 -53.25 6.3125 C-47.89809037 2.44216121 -42.20792658 1.54527561 -35.765625 1.08203125 C-34.4070639 0.9697393 -34.4070639 0.9697393 -33.02105713 0.85517883 C-22.02577301 0.02552188 -11.02098054 -0.03893623 0 0 Z " fill="#FCFCFC" transform="translate(556.25,291.6875)"/>
<path d="M0 0 C2.28166448 0.03095422 4.56262909 0.04097047 6.84448242 0.046875 C31.64151624 0.17645052 54.44059396 2.32278481 75.21362305 16.83984375 C78.77600698 18.60904923 80.36010934 18.45784556 84.1159668 17.28125 C86.06603705 16.0921167 86.06603705 16.0921167 87.7409668 14.53125 C103.44359776 2.10000048 126.58166031 -0.09106172 145.90893555 0.02050781 C148.1136422 0.03123869 150.31753445 0.02053935 152.5222168 0.0078125 C176.77544153 -0.01982061 196.69330124 6.90622236 214.5222168 23.6328125 C221.1159668 30.36558735 221.1159668 30.36558735 221.1159668 33.28125 C215.10305584 32.83322918 209.12121783 32.29092673 203.13925171 31.52752686 C193.11659072 30.28723677 183.21207161 29.97162608 173.11987305 30.02050781 C170.48552611 30.03127223 167.85185644 30.02051041 165.2175293 30.0078125 C154.67378805 29.99876588 144.54395646 30.709227 134.1159668 32.28125 C132.55700684 32.49225342 132.55700684 32.49225342 130.96655273 32.70751953 C128.0738809 33.10004826 125.18871013 33.52503529 122.3034668 33.96875 C121.26158203 34.12883545 120.21969727 34.2889209 119.14624023 34.45385742 C109.77461623 35.99001791 100.67811167 38.33940987 91.58935547 41.08276367 C80.81712462 44.15356563 70.97028189 43.11892861 60.2409668 40.34375 C59.20069336 40.08948242 59.20069336 40.08948242 58.1394043 39.83007812 C55.01960628 39.05892504 51.94690086 38.22930805 48.8737793 37.28515625 C29.43991621 32.09336538 9.21256193 31.87479015 -10.7590332 31.84375 C-11.82383911 31.83784851 -12.88864502 31.83194702 -13.98571777 31.8258667 C-27.82145347 31.77396472 -41.23274613 32.68377905 -54.93139648 34.64038086 C-58.61529637 35.15744889 -62.15538626 35.42887654 -65.8840332 35.28125 C-64.68985187 27.49233594 -56.31446475 21.37289344 -50.5090332 16.71875 C-42.6523709 11.04785144 -33.85376962 6.89565518 -24.8840332 3.28125 C-24.15563232 2.97960937 -23.42723145 2.67796875 -22.67675781 2.3671875 C-15.26796272 -0.29523786 -7.76218658 -0.10564167 0 0 Z " fill="#FCFCFC" transform="translate(568.884033203125,236.71875)"/>
<path d="M0 0 C0.80520081 -0.00535767 1.61040161 -0.01071533 2.44000244 -0.01623535 C28.83839393 -0.14979563 28.83839393 -0.14979563 36 4 C40.87646789 8.87646789 40.53022271 14.91311987 40.57226562 21.43359375 C40.56904297 22.56925781 40.56582031 23.70492188 40.5625 24.875 C40.57861328 25.98746094 40.59472656 27.09992188 40.61132812 28.24609375 C40.61697487 37.94720746 39.87818446 48.64708253 33.25 56.25 C21.45563539 64.4983805 3.6460154 62.68710849 -10.02026367 62.58618164 C-13.41414434 62.56266186 -16.8072305 62.56563347 -20.20117188 62.57226562 C-80.50559535 62.49440465 -80.50559535 62.49440465 -90.75 52.25 C-90.87593198 49.31635726 -90.93868066 46.40754321 -90.953125 43.47265625 C-90.95882507 42.59097275 -90.96452515 41.70928925 -90.97039795 40.80088806 C-90.97986205 38.932131 -90.98638751 37.06335714 -90.99023438 35.19458008 C-90.9999475 32.32799352 -91.03096028 29.46212142 -91.0625 26.59570312 C-91.06902892 24.78385844 -91.07427983 22.97200861 -91.078125 21.16015625 C-91.0904718 20.2986647 -91.1028186 19.43717316 -91.11553955 18.54957581 C-91.10644531 16.13305664 -91.10644531 16.13305664 -90.75 12.25 C-87.29098809 9.94399206 -84.05611347 9.22841784 -80.0625 8.375 C-79.27359375 8.20500488 -78.4846875 8.03500977 -77.671875 7.85986328 C-51.84382901 2.4257941 -26.36575233 0.09843453 0 0 Z " fill="#FDFDFD" transform="translate(745.75,289.75)"/>
<path d="M0 0 C-1.92291644 4.9461684 -5.26992527 6.38502229 -9.93295288 8.5194397 C-14.44717337 10.31326362 -18.97770954 11.02311016 -23.77587891 11.65380859 C-25.2073548 11.84361329 -25.2073548 11.84361329 -26.6677494 12.03725243 C-38.6978969 13.49438934 -50.73497383 13.46077675 -62.8359375 13.4765625 C-65.37343135 13.49093499 -67.91091764 13.50670268 -70.44839478 13.52377319 C-76.40898985 13.56104878 -82.36955021 13.58634954 -88.33022559 13.60489786 C-100.83222472 13.64440618 -113.33408369 13.71829179 -125.8359375 13.7890625 C-127.09186455 13.79579231 -128.3477916 13.80252213 -129.64177704 13.80945587 C-144.17415301 13.88950023 -158.70051683 14.00422086 -173.2265625 14.4609375 C-174.45732513 14.4987735 -175.68808777 14.5366095 -176.95614624 14.57559204 C-181.29830793 14.7322572 -185.53332675 14.93823227 -189.84474182 15.50888062 C-193.95265909 16.0418322 -198.03044927 16.15462909 -202.16918945 16.16113281 C-202.94272766 16.16609772 -203.71626587 16.17106262 -204.51324463 16.17617798 C-207.04659955 16.19066192 -209.57989191 16.1975778 -212.11328125 16.203125 C-213.42213822 16.20736607 -213.42213822 16.20736607 -214.75743675 16.21169281 C-219.37369458 16.22662816 -223.9899216 16.23589376 -228.60620117 16.24023438 C-233.3468555 16.24571584 -238.08722219 16.26975334 -242.82778645 16.29820633 C-246.49890442 16.31692641 -250.1699543 16.32204324 -253.84111595 16.32357025 C-255.58763389 16.32657533 -257.33415126 16.33453033 -259.08062172 16.34775543 C-273.37139668 16.44826572 -286.09501756 15.38461958 -297.5625 5.875 C-299 4 -299 4 -299 1 C-295.44855298 1.45531372 -292.24312049 2.22453681 -288.890625 3.4375 C-269.35776039 10.02239048 -246.89756675 8.91463431 -226.6328125 7.515625 C-215.84995667 6.78177099 -205.05362887 6.67240656 -194.25 6.5 C-191.85546749 6.4590579 -189.46093628 6.41803967 -187.06640625 6.37695312 C-171.72710868 6.12122426 -156.3872685 5.92633769 -141.046875 5.75 C-139.68726025 5.734282 -139.68726025 5.734282 -138.30017853 5.71824646 C-129.24297282 5.6136912 -120.18575741 5.51139874 -111.12841797 5.41908455 C-58.60986311 7.68504003 -58.60986311 7.68504003 -7.375 0.62109375 C-4.8270808 -0.04522065 -2.62212649 -0.10769448 0 0 Z " fill="#F2F2F2" transform="translate(490,353)"/>
<path d="M0 0 C3.06262743 0.4375182 5.87770694 0.95758647 8.80574036 1.9730835 C21.52335962 6.06164691 36.04608294 5.63612187 49.26953125 6.109375 C50.40626596 6.15124687 51.54300068 6.19311874 52.7141819 6.23625946 C92.05239909 7.62936117 131.4399864 7.30044088 170.79634297 7.25713873 C179.67405624 7.24840202 188.55171326 7.2546995 197.42942303 7.264395 C206.1041154 7.2734822 214.77878353 7.27475055 223.45347911 7.26951766 C228.58723683 7.26642473 233.72095637 7.26591699 238.85471153 7.27259064 C243.64310213 7.27838987 248.43138734 7.27432048 253.21976662 7.26280212 C254.96439566 7.26017571 256.7090337 7.26088574 258.45365906 7.26532745 C269.8722862 7.2917118 281.18817848 7.20459726 292 3 C291.25874653 7.29000447 289.38500832 8.936292 286.09765625 11.609375 C279.4446068 16.01996271 271.13232844 17.1228997 263.30297852 17.12939453 C261.65036766 17.13405479 261.65036766 17.13405479 259.96437073 17.1388092 C258.18956581 17.13584084 258.18956581 17.13584084 256.37890625 17.1328125 C254.51787514 17.13485939 254.51787514 17.13485939 252.61924744 17.13694763 C249.2866883 17.13862437 245.95422104 17.1353936 242.62167358 17.12877274 C240.56190939 17.12499892 238.50214973 17.12293532 236.44238281 17.12130737 C189.09654743 17.0770176 189.09654743 17.0770176 172.78710938 15.51367188 C164.38969433 14.80672038 155.98428806 14.64933884 147.5625 14.46484375 C146.6671756 14.44418287 145.7718512 14.423522 144.84939575 14.40223503 C129.21319613 14.04484783 113.57714311 13.87079064 97.9375 13.75390625 C96.28590881 13.74131334 96.28590881 13.74131334 94.60095215 13.72846603 C84.40947584 13.65151611 74.21797822 13.57978376 64.02636719 13.52319336 C58.36280469 13.49134328 52.6993741 13.45014115 47.03591919 13.40299797 C44.91181773 13.38712251 42.7876869 13.37473551 40.6635437 13.36609077 C37.71956812 13.35387516 34.77590574 13.32972563 31.83203125 13.30297852 C30.98019257 13.30238937 30.12835388 13.30180023 29.2507019 13.30119324 C21.35874051 13.20665702 13.54732309 12.25247074 6.5 8.5 C5.6853125 8.0771875 4.870625 7.654375 4.03125 7.21875 C2 6 2 6 0 4 C0 2.68 0 1.36 0 0 Z " fill="#F4F4F4" transform="translate(806,352)"/>
<path d="M0 0 C1.20953339 0.0129007 2.41906677 0.02580139 3.66525269 0.03909302 C22.01425236 0.3687276 40.33193673 1.80661009 58.63275146 3.09448242 C63.60111685 3.44260055 68.57008704 3.78181288 73.5390625 4.12109375 C74.51282711 4.18764286 75.48659172 4.25419197 76.48986435 4.32275772 C78.44389861 4.45625491 80.39793785 4.5896794 82.35198212 4.72303009 C84.29431637 4.85558693 86.23664324 4.98825191 88.17896271 5.12102509 C133.68457027 8.23028565 178.98955235 9.55513907 224.60003662 9.95574951 C230.42571487 10.00691996 236.25133607 10.06162803 242.076931 10.12156677 C244.75839227 10.14775643 247.43986098 10.16875118 250.12136841 10.1895752 C251.76597376 10.20617735 253.41057642 10.22304911 255.05517578 10.24023438 C255.78134598 10.24441879 256.50751617 10.24860321 257.25569153 10.25291443 C270.99040585 10.41808307 270.99040585 10.41808307 275.5078125 13.4296875 C275.1778125 14.4196875 274.8478125 15.4096875 274.5078125 16.4296875 C259.00600054 16.45329343 243.50418997 16.47080006 228.00236416 16.48149967 C220.80080494 16.4866049 213.59925702 16.49353397 206.39770508 16.50512695 C200.10367307 16.51525399 193.80964926 16.52158258 187.51560932 16.52377599 C184.1985718 16.52505335 180.88157595 16.52850963 177.56454277 16.53541756 C163.37773307 16.56373118 149.20891 16.43576165 135.02978516 15.97998047 C133.78648154 15.94030686 132.54317793 15.90063326 131.26219845 15.85975742 C118.29901825 15.40758953 105.37666194 14.48238042 92.4453125 13.4921875 C90.12308716 13.32041805 87.80082138 13.14919444 85.47851562 12.97851562 C67.06739659 11.60962049 67.06739659 11.60962049 60.06835938 10.87695312 C44.47726107 9.25555021 28.91537306 8.99835098 13.25634766 8.82879639 C9.66169922 8.78798568 6.06719003 8.73725601 2.47265625 8.6875 C-4.51552177 8.59216107 -11.50378847 8.50732886 -18.4921875 8.4296875 C-14.39126435 -0.23492105 -8.78477821 -0.17756996 0 0 Z " fill="#F3F3F3" transform="translate(823.4921875,273.5703125)"/>
<path d="M0 0 C1.71094556 -0.01482974 3.42184966 -0.0360275 5.13262939 -0.06408691 C24.01680481 -0.3471199 24.01680481 -0.3471199 30.72341919 4.35247803 C31.05341919 5.34247803 31.38341919 6.33247803 31.72341919 7.35247803 C30.40776978 7.37229736 29.09212036 7.3921167 27.73660278 7.41253662 C-5.98280247 7.93601961 -39.51807918 9.13051016 -73.1522522 11.5592804 C-119.86675423 14.92651762 -166.37034152 16.52969455 -213.19728851 16.59745789 C-216.2012873 16.60245674 -219.20526784 16.61037985 -222.20925903 16.61871338 C-226.97053938 16.63050335 -231.73168653 16.63051891 -236.49297142 16.62136841 C-238.2644968 16.61921472 -240.03602936 16.62026234 -241.80755043 16.62472534 C-244.25951242 16.62986027 -246.71111939 16.62221397 -249.16305542 16.61126709 C-250.22479194 16.61734922 -250.22479194 16.61734922 -251.30797768 16.62355423 C-256.28118715 16.58176024 -260.52534536 15.69073026 -265.27658081 14.35247803 C-265.27658081 13.03247803 -265.27658081 11.71247803 -265.27658081 10.35247803 C-264.18216675 10.34034775 -264.18216675 10.34034775 -263.06564331 10.32797241 C-175.69608206 9.85092195 -175.69608206 9.85092195 -88.51521301 4.88554382 C-79.63640143 4.10295306 -70.74200551 3.58538117 -61.84518433 3.05609131 C-55.41108293 2.67282452 -48.98166894 2.2652943 -42.55392456 1.78607178 C-28.36880403 0.75412065 -14.22184024 0.112941 0 0 Z " fill="#F6F6F6" transform="translate(458.2765808105469,274.64752197265625)"/>
<path d="M0 0 C-5.00680117 14.27196415 -19.52867191 27.26346471 -29.57421875 38.328125 C-31.07805034 39.95601487 -31.07805034 39.95601487 -32 42 C-31.34 42 -30.68 42 -30 42 C-31.37978721 45.39639929 -32.51746669 46.48793882 -35.8125 48 C-41.59482273 51.38171943 -42.79593408 56.99029776 -45 63 C-47.13640289 68.1395315 -48.94557232 71.92352711 -54.125 74.375 C-55.73485125 74.96015531 -57.36192362 75.49926698 -59 76 C-59.95261719 76.30808594 -60.90523437 76.61617188 -61.88671875 76.93359375 C-69.99969147 79.37073509 -69.99969147 79.37073509 -74 78 C-73.32195312 77.35675781 -72.64390625 76.71351563 -71.9453125 76.05078125 C-66.73722841 70.99417883 -61.844715 65.85187387 -57.375 60.125 C-56.94977051 59.59044189 -56.52454102 59.05588379 -56.08642578 58.50512695 C-53.71604792 55.39284907 -52.41797305 52.90588606 -52 49 C-54.31 47.68 -56.62 46.36 -59 45 C-59 44.01 -59 43.02 -59 42 C-54.05 42 -49.1 42 -44 42 C-44 41.34 -44 40.68 -44 40 C-44.88945313 39.61714844 -44.88945313 39.61714844 -45.796875 39.2265625 C-48.21224538 37.88183502 -49.51211706 36.50785633 -51.25 34.375 C-51.77078125 33.74335938 -52.2915625 33.11171875 -52.828125 32.4609375 C-53.21484375 31.97882813 -53.6015625 31.49671875 -54 31 C-52.60587891 31.13921875 -52.60587891 31.13921875 -51.18359375 31.28125 C-44.0531718 31.89714759 -44.0531718 31.89714759 -37.6171875 29.39453125 C-35.16367931 26.56396877 -33.3595505 23.68641459 -31.625 20.375 C-28.94304125 16.45521414 -24.98375675 14.48920376 -21 12 C-19.5647571 11.07155481 -18.13131081 10.14032915 -16.69921875 9.20703125 C-13.66753737 7.23230162 -10.63571142 5.25788346 -7.59765625 3.29296875 C-6.95320557 2.8755542 -6.30875488 2.45813965 -5.64477539 2.02807617 C-2.40014248 0 -2.40014248 0 0 0 Z " fill="#080808" transform="translate(1118,142)"/>
<path d="M0 0 C62.7 0 125.4 0 190 0 C190 0.33 190 0.66 190 1 C189.00782471 1.02505615 188.01564941 1.0501123 186.9934082 1.07592773 C183.249013 1.17137866 179.50474533 1.27124044 175.76049805 1.37231445 C174.15180481 1.4151509 172.54308087 1.45685199 170.93432617 1.49731445 C148.07309127 2.0743665 125.64251001 4.25292809 103.4375 10 C102.51727051 10.23678467 101.59704102 10.47356934 100.64892578 10.7175293 C96.30687059 11.89595013 92.37922037 13.24498371 88.34765625 15.25 C82.47502171 17.96309226 78.26334279 16.73373415 72.30078125 14.80078125 C70.97100242 14.30563112 69.64159782 13.80947522 68.3125 13.3125 C46.29999476 5.62138371 23.11665363 2.89157228 0 1 C0 0.67 0 0.34 0 0 Z " fill="#F5F5F5" transform="translate(572,0)"/>
<path d="M0 0 C4.92869195 1.65906757 8.95698122 4.45363358 13.25 7.3125 C18.51293597 10.79038932 23.70097638 14.13470133 29.43359375 16.8046875 C31 18 31 18 33 23 C38.28 22.67 43.56 22.34 49 22 C47.47005208 23.72526042 45.94010417 25.45052083 44.41015625 27.17578125 C42.79918441 29.05241958 42.79918441 29.05241958 42 32 C45.96 32.33 49.92 32.66 54 33 C52.66667905 36.99996286 50.5042173 37.83782337 47 40 C48.74022515 49.16801542 56.14965306 56.6240137 62.44287109 63.11523438 C66 66.81037143 66 66.81037143 66 69 C55.55028706 68.14875934 49.04418225 66.6498813 42.015625 58.77734375 C39.6193297 55.47547174 38.06139032 52.07196819 36.375 48.375 C32.65873587 40.58532658 28.11328223 35.12333697 22 29 C20.79970074 27.6571652 19.6109752 26.30383802 18.4375 24.9375 C16.58225952 22.79347208 14.70686149 20.6831214 12.78125 18.6015625 C0 4.75520833 0 4.75520833 0 0 Z " fill="#090909" transform="translate(180,151)"/>
<path d="M0 0 C15.51 0 31.02 0 47 0 C48.84288788 3.68577577 49.24701045 4.72122653 49.1953125 8.546875 C49.18886719 9.39121094 49.18242188 10.23554688 49.17578125 11.10546875 C49.15902344 11.97816406 49.14226562 12.85085938 49.125 13.75 C49.11597656 14.63816406 49.10695313 15.52632813 49.09765625 16.44140625 C49.07414577 18.62788058 49.04128499 20.81380094 49 23 C43.98308858 23.17364177 38.96794167 23.30033882 33.94873047 23.38452148 C32.24334228 23.41962576 30.53816332 23.46732386 28.83349609 23.52807617 C14.76782752 24.01663851 14.76782752 24.01663851 10.64892578 21.64794922 C9.04482101 19.83936516 8.03543701 18.17820262 7 16 C6.29469934 14.85910999 5.58898796 13.71847375 4.8828125 12.578125 C4.30273438 11.47984375 3.72265625 10.3815625 3.125 9.25 C2.52945312 8.14140625 1.93390625 7.0328125 1.3203125 5.890625 C0 3 0 3 0 0 Z " fill="#FBFBFB" transform="translate(1114,465)"/>
<path d="M0 0 C1.38986115 0.00636726 1.38986115 0.00636726 2.80780029 0.01286316 C5.76278934 0.02963553 8.71709261 0.0672852 11.671875 0.10546875 C13.67707347 0.12051745 15.68228265 0.13420553 17.6875 0.14648438 C22.59922196 0.17953437 27.51043226 0.23130693 32.421875 0.29296875 C31.76684504 5.52543357 30.72069096 9.36671886 28.234375 14.04296875 C27.66332031 15.1515625 27.09226563 16.26015625 26.50390625 17.40234375 C24.01722095 20.85477737 22.36221291 21.73587453 18.421875 23.29296875 C15.59224249 23.54045072 12.99881028 23.64535763 10.1796875 23.5859375 C9.41131561 23.58169266 8.64294373 23.57744781 7.85128784 23.57307434 C5.41611515 23.55638701 2.9817942 23.51875516 0.546875 23.48046875 C-1.11196715 23.46540898 -2.77082237 23.45172284 -4.4296875 23.43945312 C-8.4794909 23.40651634 -12.52866394 23.35480469 -16.578125 23.29296875 C-16.43147587 21.21201949 -16.28099889 19.13133974 -16.12890625 17.05078125 C-16.0038269 15.31272217 -16.0038269 15.31272217 -15.8762207 13.53955078 C-15.09188836 4.99733004 -15.09188836 4.99733004 -12.10253906 1.6315918 C-8.17487897 -0.45113163 -4.37552993 -0.07544102 0 0 Z " fill="#FCFCFC" transform="translate(142.578125,464.70703125)"/>
<path d="M0 0 C5.33593307 0.36799538 9.96712398 1.24098713 15.0625 2.875 C35.96656176 9.11671225 58.9538271 9.18706204 80.61083984 9.18530273 C83.5987797 9.18748089 86.58634418 9.20568011 89.57421875 9.22460938 C99.12313923 9.25311126 108.58071096 9.03679499 118.08984375 8.1171875 C119.31080246 8.00137581 119.31080246 8.00137581 120.556427 7.88322449 C125.74447724 7.3198512 130.31169954 6.23813014 135.02734375 3.90234375 C137.31978428 2.85372244 139.52185376 2.4180525 142 2 C141.67906924 4.99535371 141.0809449 5.92710646 138.80078125 7.98046875 C114.87748725 25.23059845 70.46686738 19.75068995 43.22705078 15.39697266 C39.10081203 14.70743332 34.98710119 13.9563702 30.875 13.1875 C29.59407471 12.95144043 28.31314941 12.71538086 26.9934082 12.47216797 C17.64994043 10.62475794 8.01674362 8.34449575 0 3 C0 2.01 0 1.02 0 0 Z " fill="#EDEDED" transform="translate(653,350)"/>
<path d="M0 0 C1.87670859 0.01073061 3.75341758 0.02139026 5.63012695 0.03198242 C17.47374523 0.12722717 29.29918764 0.4703759 41.125 1.125 C41.79540314 1.15975433 42.46580627 1.19450867 43.15652466 1.23031616 C56.42749195 1.94723763 69.34145473 4.17347426 82.125 7.8125 C82.86943359 8.01230469 83.61386719 8.21210938 84.38085938 8.41796875 C88.44447606 9.55418926 91.99974135 10.76299852 95.4375 13.3125 C95.4375 13.9725 95.4375 14.6325 95.4375 15.3125 C87.95109662 15.54743463 81.09024612 14.9108525 73.75 13.5 C50.69882346 9.46252305 27.92197328 8.03479681 4.5625 8 C3.10925323 7.99462219 3.10925323 7.99462219 1.62664795 7.98913574 C-10.91833246 7.96410277 -23.12556849 8.69889863 -35.5625 10.3125 C-38.89419305 10.66649239 -42.22761708 10.98976939 -45.5625 11.3125 C-45.5625 9.6625 -45.5625 8.0125 -45.5625 6.3125 C-40.72877121 3.57343493 -36.38631426 2.45636761 -30.97265625 1.64453125 C-29.72972557 1.4550164 -29.72972557 1.4550164 -28.46168518 1.26167297 C-18.97901921 -0.06752304 -9.55713237 -0.10258083 0 0 Z " fill="#F2F2F2" transform="translate(547.5625,278.6875)"/>
<path d="M0 0 C3.31220059 0.62216106 6.50632964 1.39641377 9.73046875 2.375 C10.61669922 2.63796875 11.50292969 2.9009375 12.41601562 3.171875 C14.24574934 3.71860304 16.07392229 4.27058535 17.90039062 4.828125 C19.2394043 5.22257812 19.2394043 5.22257812 20.60546875 5.625 C21.40106201 5.86476563 22.19665527 6.10453125 23.01635742 6.3515625 C30.8630676 8.05689449 38.84450326 8.15851752 46.84375 8.16796875 C48.35660583 8.17296135 48.35660583 8.17296135 49.90002441 8.17805481 C52.02449085 8.18308778 54.1489651 8.18546427 56.2734375 8.18530273 C59.46368031 8.18747527 62.65356877 8.20563194 65.84375 8.22460938 C82.37345752 8.27106281 98.20928384 6.83316803 114.5 4 C115.4796875 3.835 116.459375 3.67 117.46875 3.5 C122.13127627 2.70637851 126.76884751 1.85056053 131.3984375 0.8828125 C136.0497443 -0.0629964 140.26039122 -0.15289061 145 0 C144 3 144 3 142.34765625 4.02734375 C134.49793563 7.15381367 126.42456675 8.83769816 118.17626953 10.53857422 C116.26556888 10.94369249 114.36418283 11.39223461 112.46484375 11.84765625 C95.67737303 15.82942821 78.36496921 16.3553045 61.1784668 16.31567383 C58.30284458 16.31248931 55.4282327 16.33620075 52.55273438 16.36132812 C13.74500461 16.4946987 13.74500461 16.4946987 1.6875 5.375 C0 3 0 3 0 0 Z " fill="#F1F1F1" transform="translate(500,353)"/>
<path d="M0 0 C3.65471124 0.01726684 7.30876935 0.00708041 10.96345806 -0.01071739 C13.84553269 -0.02166857 16.72745746 -0.01806067 19.60953712 -0.01033401 C21.59603444 -0.00744072 23.58253828 -0.01633627 25.5690155 -0.02572632 C48.42226965 0.14907629 48.42226965 0.14907629 53.66430664 5.39111328 C53.66430664 6.38111328 53.66430664 7.37111328 53.66430664 8.39111328 C53.05132217 8.36180222 52.43833771 8.33249115 51.80677795 8.30229187 C36.06288164 7.56738093 20.34681458 7.2047007 4.5859375 7.20581055 C1.07222878 7.20359463 -2.44117904 7.18524664 -5.95483398 7.16650391 C-17.92610713 7.13567926 -29.51638319 7.40396883 -41.33569336 9.39111328 C-43.16571899 9.68852417 -43.16571899 9.68852417 -45.03271484 9.99194336 C-48.61895498 10.59509133 -52.19617036 11.23568986 -55.77319336 11.89111328 C-56.96106445 12.10380859 -58.14893555 12.31650391 -59.37280273 12.53564453 C-65.08391675 13.56826969 -70.76004127 14.6486654 -76.39819336 16.02929688 C-79.72746077 16.65101743 -82.95966942 16.51387779 -86.33569336 16.39111328 C-86.27319336 14.07861328 -86.27319336 14.07861328 -85.33569336 11.39111328 C-60.65864728 -1.41051786 -27.13436537 -0.12936766 0 0 Z " fill="#F0F0F0" transform="translate(739.335693359375,277.60888671875)"/>
<path d="M0 0 C1.35544922 -0.01836914 1.35544922 -0.01836914 2.73828125 -0.03710938 C16.84015539 -0.06754507 27.25396738 4.19049699 37.5078125 13.94921875 C38.24773437 14.68785156 38.98765625 15.42648438 39.75 16.1875 C40.30429688 16.73019531 40.85859375 17.27289063 41.4296875 17.83203125 C49.27258572 26.20485503 54.30261682 37.39903746 57.75 48.1875 C58.12125 49.24582031 58.4925 50.30414063 58.875 51.39453125 C61.75 59.65017361 61.75 59.65017361 61.75 64.1875 C61.09 64.1875 60.43 64.1875 59.75 64.1875 C59.54955078 63.65495605 59.34910156 63.12241211 59.14257812 62.57373047 C50.13936662 38.85608655 39.93138247 19.26701334 15.765625 8.3515625 C3.01564025 3.42993626 -12.89997208 4.99724436 -25.25 10.1875 C-25.91 10.1875 -26.57 10.1875 -27.25 10.1875 C-25.79663682 6.37952609 -24.07091882 5.22682723 -20.4375 3.5 C-19.15939453 2.87544922 -19.15939453 2.87544922 -17.85546875 2.23828125 C-11.99935169 -0.1234811 -6.21831336 0.00436067 0 0 Z " fill="#EBEBEB" transform="translate(83.25,182.8125)"/>
<path d="M0 0 C1.09674401 0.90057841 2.18589345 1.81108246 3.25 2.75 C-0.88544115 4.12848038 -3.77761912 2.629159 -7.75 1.3125 C-21.47650182 -2.93769156 -33.6907522 -1.70824964 -46.875 4.3125 C-66.97395138 15.14316023 -75.27044773 35.79964237 -83.75 55.75 C-84.08 55.75 -84.41 55.75 -84.75 55.75 C-83.81044193 37.89839666 -74.92611164 18.83154437 -61.75 6.75 C-55.8875615 1.84422574 -50.0898144 -2.89571991 -42.75 -5.25 C-42.14800781 -5.45109375 -41.54601563 -5.6521875 -40.92578125 -5.859375 C-27.35403442 -9.68531506 -11.47475344 -8.45086554 0 0 Z " fill="#EBEBEB" transform="translate(1232.75,189.25)"/>
<path d="M0 0 C1.25024963 -0.02723145 2.50049927 -0.05446289 3.78863525 -0.08251953 C4.84767059 -0.11337646 5.90670593 -0.1442334 6.99783325 -0.17602539 C9.69537354 0.13232422 9.69537354 0.13232422 13.69537354 3.13232422 C-22.60462646 3.13232422 -58.90462646 3.13232422 -96.30462646 3.13232422 C-96.30462646 2.80232422 -96.30462646 2.47232422 -96.30462646 2.13232422 C-84.55114622 1.86973086 -72.79762976 1.60882717 -61.04406548 1.35002136 C-55.58516497 1.22976809 -50.12627812 1.1089546 -44.66741943 0.98681641 C-39.38952651 0.86874856 -34.11160174 0.75221028 -28.8336525 0.63668823 C-26.83004703 0.59257357 -24.82645318 0.54792765 -22.82287216 0.50271606 C-17.43224303 0.3812556 -12.04167596 0.27203297 -6.65047455 0.17938232 C-4.432917 0.13489775 -2.2168824 0.06977027 0 0 Z " fill="#F1F1F1" transform="translate(1108.3046264648438,496.86767578125)"/>
</svg>
